<svg version="1.1" id="Layer_1" xmlns="http://www.w3.org/2000/svg" xmlns:xlink="http://www.w3.org/1999/xlink" x="0px" y="0px"
	 width="100%" viewBox="0 0 500 500" enable-background="new 0 0 500 500" xml:space="preserve">
<path fill="#FFFFFF" opacity="1.000000" stroke="none" 
	d="
M501.000000,104.625000 
	C499.417053,111.668770 497.592346,118.290688 496.289429,125.013725 
	C485.817413,179.049332 475.440338,233.103333 465.043121,287.153412 
	C462.862518,298.489380 456.250732,304.575806 444.872253,305.954071 
	C396.294830,311.838226 347.727264,317.803497 299.149323,323.683502 
	C259.160553,328.523834 219.162811,333.290100 179.167709,338.078125 
	C172.053299,338.929840 170.980682,340.104370 170.052704,348.304260 
	C169.331451,354.677734 170.630539,357.732819 177.097565,358.804810 
	C185.528458,360.202301 194.274719,361.022003 202.775665,360.452881 
	C250.922577,357.229645 299.014221,353.161041 347.171204,350.116028 
	C372.573608,348.509766 398.069061,348.345764 423.525818,347.652588 
	C429.178528,347.498657 434.848541,347.774811 440.504730,348.000183 
	C450.699951,348.406372 458.144226,355.719147 457.830597,364.888611 
	C457.504303,374.427948 450.118195,381.207642 439.833679,380.954987 
	C385.658508,379.623932 331.711517,383.758362 277.759705,387.674774 
	C250.873993,389.626465 224.025955,392.098358 197.139069,394.031616 
	C185.416901,394.874481 173.847687,393.417236 162.849823,388.965942 
	C142.152542,380.588867 132.726593,361.307678 138.610840,338.319061 
	C140.570053,330.664764 144.135406,323.430603 146.745438,315.927490 
	C147.396973,314.054474 147.826416,311.694916 147.287766,309.875885 
	C122.062866,224.689331 96.697929,139.544250 71.478317,54.356148 
	C70.580688,51.324097 69.319725,50.524029 66.345009,50.554783 
	C52.347004,50.699512 38.346668,50.626251 24.347172,50.617031 
	C12.249235,50.609062 5.433173,45.695034 1.329954,34.145027 
	C1.000000,31.299986 1.000000,28.599974 1.335316,25.326330 
	C5.884359,13.377241 12.168410,8.966909 24.211861,8.963213 
	C44.542397,8.956973 64.873131,8.908496 85.203384,8.984355 
	C95.787048,9.023846 102.750298,14.208930 106.017906,24.296562 
	C107.450607,28.719549 108.681351,33.207829 110.012611,37.663830 
	C114.381165,52.286289 118.753769,66.907539 123.150307,81.614525 
	C125.461456,81.614525 127.455574,81.614525 129.449692,81.614525 
	C244.267227,81.614525 359.084747,81.614525 473.902283,81.614525 
	C491.348236,81.614525 496.009369,85.148117 500.555481,101.800262 
	C500.582703,101.899864 500.846619,101.934837 501.000000,102.000000 
	C501.000000,102.750000 501.000000,103.500000 501.000000,104.625000 
M163.642105,190.623169 
	C188.567154,190.623169 213.492203,190.623169 238.442291,190.623169 
	C238.442291,167.844849 238.442291,145.667282 238.442291,123.398193 
	C204.116043,123.398193 170.186356,123.398193 135.792328,123.398193 
	C136.165329,124.908905 136.422821,126.160873 136.783768,127.382271 
	C142.332336,146.158020 148.128830,164.865463 153.305984,183.742859 
	C154.798492,189.184921 156.970398,191.839615 163.642105,190.623169 
M344.164917,244.500076 
	C344.164917,233.230713 344.164917,221.961334 344.164917,210.468445 
	C315.455505,210.468445 287.253967,210.468445 258.783020,210.468445 
	C258.783020,235.740356 258.783020,260.773926 258.783020,286.368866 
	C287.400116,282.901855 315.668518,279.477112 344.164917,276.024719 
	C344.164917,265.433777 344.164917,255.466934 344.164917,244.500076 
M344.167389,146.500107 
	C344.167389,138.890228 344.167389,131.280350 344.167389,123.492462 
	C315.428375,123.492462 287.218842,123.492462 258.872498,123.492462 
	C258.872498,145.956573 258.872498,168.153198 258.872498,190.272141 
	C287.464233,190.272141 315.677032,190.272141 344.167389,190.272141 
	C344.167389,175.784027 344.167389,161.642059 344.167389,146.500107 
M363.996887,140.501709 
	C363.996887,157.093460 363.996887,173.685196 363.996887,190.374817 
	C389.994934,190.374817 415.399445,190.374817 441.152252,190.374817 
	C445.458282,168.055466 449.731079,145.908340 454.061432,123.462891 
	C423.955292,123.462891 394.221924,123.462891 363.996887,123.462891 
	C363.996887,128.935059 363.996887,134.218842 363.996887,140.501709 
M203.655655,292.984558 
	C215.313736,291.591980 226.971802,290.199371 238.480896,288.824554 
	C238.480896,262.310852 238.480896,236.437393 238.480896,210.583801 
	C212.771057,210.583801 187.418839,210.583801 161.475632,210.583801 
	C169.919342,238.984787 178.217148,266.894989 186.605225,295.108826 
	C192.251236,294.409363 197.509003,293.757996 203.655655,292.984558 
M427.161285,262.645966 
	C430.523834,245.379562 433.886383,228.113159 437.300812,210.580460 
	C412.580688,210.580460 388.385468,210.580460 364.220886,210.580460 
	C364.220886,231.725143 364.220886,252.515839 364.220886,273.592865 
	C384.092255,271.193268 403.716614,268.872955 423.314667,266.348663 
	C424.660278,266.175323 425.809418,264.476624 427.161285,262.645966 
z"/>
<path fill="#FFFFFF" opacity="1.000000" stroke="none" 
	d="
M403.413269,493.581879 
	C381.590637,490.789246 366.207092,474.866547 365.165802,454.450348 
	C364.131256,434.166718 377.240234,416.297363 397.495972,411.654907 
	C413.966370,407.880035 428.382019,412.617035 439.088257,425.752106 
	C449.894104,439.009338 451.819489,454.266022 444.578064,469.728943 
	C437.450867,484.947968 425.085510,493.316437 407.854706,493.585236 
	C406.523071,493.605988 405.190857,493.587158 403.413269,493.581879 
z"/>
<path fill="#FFFFFF" opacity="1.000000" stroke="none" 
	d="
M157.116547,492.057739 
	C137.359390,484.842072 126.649529,468.642670 127.963951,448.442505 
	C129.118179,430.704315 142.384506,415.251190 160.568832,411.513580 
	C177.096436,408.116516 191.380188,412.873108 201.945847,426.196442 
	C212.462051,439.457428 214.306702,454.423309 207.075439,469.754456 
	C199.871735,485.027222 187.548080,493.395935 170.341293,493.512146 
	C166.065674,493.541077 161.783798,492.638977 157.116547,492.057739 
z"/>
</svg>