<svg version="1.1" id="Layer_1" xmlns="http://www.w3.org/2000/svg" xmlns:xlink="http://www.w3.org/1999/xlink" x="0px" y="0px"
	 width="100%" viewBox="0 0 500 500" enable-background="new 0 0 500 500" xml:space="preserve">
<path fill="#FFFFFF" opacity="1.000000" stroke="none" 
	d="
M232.000000,1.000001 
	C246.354233,1.000000 260.708466,1.000000 275.618469,1.388429 
	C277.453949,2.081691 278.718018,2.517291 280.015594,2.672429 
	C324.845490,8.032217 365.571472,23.996307 400.863953,52.085712 
	C469.867340,107.005722 500.694733,179.248566 495.740845,267.357452 
	C492.299683,284.476044 490.413391,301.653381 485.563690,317.948792 
	C472.708221,361.144470 449.122009,397.827271 415.527710,428.146515 
	C391.458191,449.869507 364.322906,466.218781 333.903992,477.155914 
	C299.425293,489.552734 263.931152,493.473663 227.431839,490.177185 
	C198.037735,487.522400 170.225937,479.638916 143.780258,466.837128 
	C112.942635,451.909363 86.662544,431.040771 64.419586,404.998352 
	C35.755543,371.438049 17.605312,332.947021 9.812539,289.529175 
	C8.941525,284.676270 7.833396,279.865967 6.640264,274.601685 
	C6.317041,262.012115 5.802870,249.846313 6.130898,237.703262 
	C7.236526,196.774765 18.012173,158.397583 39.002399,123.303284 
	C78.971001,56.478371 137.631760,16.598959 214.519470,3.727446 
	C220.335510,2.753800 226.172668,1.906194 232.000000,1.000001 
M296.434814,249.680176 
	C327.944855,218.186920 359.383087,186.621033 391.059662,155.296173 
	C394.843353,151.554474 396.240082,147.891937 395.088776,142.261688 
	C381.644714,129.258438 368.200623,116.255188 354.452423,102.957779 
	C320.432983,137.078766 286.003296,171.611221 250.810913,206.908646 
	C215.980988,171.911194 181.399933,137.163818 146.607117,102.203659 
	C133.825562,115.052147 121.365456,127.556374 108.952347,140.107101 
	C108.193962,140.873886 107.807838,142.008850 107.078087,143.832809 
	C106.197014,148.695923 108.166451,152.146988 111.664459,155.581573 
	C129.445770,173.040466 146.949692,190.781464 164.607666,208.366501 
	C178.606506,222.307541 192.687531,236.166061 206.527664,250.768158 
	C205.414612,251.994690 204.350845,253.270493 203.181290,254.440552 
	C172.147049,285.488770 141.093292,316.517487 110.091179,347.597717 
	C108.897041,348.794861 108.181686,350.469543 107.070053,352.785492 
	C106.238602,357.481476 108.133018,360.792389 111.556931,364.080597 
	C122.598999,374.684814 133.286987,385.657532 144.130005,396.469574 
	C145.015518,397.352570 146.041626,398.094604 148.003082,399.743256 
	C182.718872,364.981903 217.245789,330.409637 252.194580,295.414978 
	C286.423584,329.720581 320.852081,364.226166 355.508728,398.960388 
	C356.811768,397.737793 358.030365,396.654694 359.181885,395.504486 
	C369.662109,385.036591 379.933258,374.347778 390.702515,364.186768 
	C394.840759,360.282227 396.282867,356.282318 394.938965,350.317535 
	C363.441498,318.780792 331.935547,287.252502 300.469666,255.684296 
	C298.753845,253.962921 297.372620,251.908035 296.434814,249.680176 
z"/>
<path fill="#000000" opacity="1.000000" stroke="none" 
	d="
M107.243225,351.921722 
	C108.181686,350.469543 108.897041,348.794861 110.091179,347.597717 
	C141.093292,316.517487 172.147049,285.488770 203.181290,254.440552 
	C204.350845,253.270493 205.414612,251.994690 206.898300,250.309326 
	C208.754471,249.127502 210.239990,248.404495 211.725525,247.681488 
	C211.522415,246.840744 211.319321,246.000000 211.116226,245.159256 
	C209.600525,244.113052 207.883560,243.269028 206.599258,241.990387 
	C186.787552,222.266357 167.048264,202.469635 147.257874,182.724136 
	C133.949280,169.445694 120.586853,156.221161 107.248505,142.972519 
	C107.807838,142.008850 108.193962,140.873886 108.952347,140.107101 
	C121.365456,127.556374 133.825562,115.052147 146.607117,102.203659 
	C181.399933,137.163818 215.980988,171.911194 250.810913,206.908646 
	C286.003296,171.611221 320.432983,137.078766 354.452423,102.957779 
	C368.200623,116.255188 381.644714,129.258438 394.785919,142.785645 
	C361.015625,176.688828 327.547302,210.067200 294.082062,243.448669 
	C290.889587,246.633133 292.146820,248.651581 295.835632,250.008392 
	C297.372620,251.908035 298.753845,253.962921 300.469666,255.684296 
	C331.935547,287.252502 363.441498,318.780792 394.697876,350.837158 
	C381.579956,364.098907 368.703094,376.841034 355.669525,389.738281 
	C354.332367,388.601990 353.281830,387.815857 352.353882,386.904877 
	C334.789124,369.661102 317.191040,352.450867 299.700348,335.132202 
	C285.041504,320.617523 270.512543,305.971680 255.923920,291.386017 
	C251.024673,286.487762 251.017365,286.486389 245.957275,291.545807 
	C214.269119,323.229767 182.540695,354.873749 150.962601,386.667023 
	C147.845245,389.805542 146.038193,389.815247 142.982956,386.652283 
	C132.799911,376.110138 122.341667,365.832947 111.929489,355.514130 
	C110.542686,354.139771 108.813721,353.110718 107.243225,351.921722 
z"/>
</svg>