<svg version="1.1" id="Layer_1" xmlns="http://www.w3.org/2000/svg" xmlns:xlink="http://www.w3.org/1999/xlink" x="0px" y="0px"
	 width="100%" viewBox="0 0 500 500" enable-background="new 0 0 500 500" xml:space="preserve">
<path fill="#FFFFFF" opacity="1.000000" stroke="none" 
	d="
M501.000000,249.666687 
	C499.747772,250.957977 498.367340,251.787659 497.261658,252.892334 
	C450.010071,300.101135 402.768158,347.319641 355.557892,394.569824 
	C322.123291,428.032654 288.732819,461.539581 255.337738,495.041870 
	C254.046921,496.336792 252.913361,497.788391 251.584625,499.306213 
	C168.044601,415.918396 84.868431,332.893829 1.346135,249.934616 
	C1.000000,249.555557 1.000000,249.111099 1.000003,248.333328 
	C3.190703,246.170700 5.520873,244.483353 7.550210,242.489792 
	C25.025047,225.322906 42.445580,208.100739 59.460327,191.311462 
	C122.826134,254.363998 186.567505,317.790253 249.811707,380.721771 
	C313.962006,316.903534 377.703522,253.491928 441.663116,189.863358 
	C461.451477,209.570312 480.894287,228.933167 500.668549,248.148010 
	C501.000000,248.444443 501.000000,248.888901 501.000000,249.666687 
z"/>
</svg>