<svg version="1.1" id="Layer_1" xmlns="http://www.w3.org/2000/svg" xmlns:xlink="http://www.w3.org/1999/xlink" x="0px" y="0px"
	 width="100%" viewBox="0 0 496 496" enable-background="new 0 0 496 496" xml:space="preserve">
<path fill="#FFFFFF" opacity="1.000000" stroke="none" 
	d="
M187.468658,497.000000 
	C179.660110,494.409973 172.207977,492.098053 164.997559,489.187317 
	C86.410027,457.462555 34.833733,400.955627 14.064728,318.800781 
	C-5.949899,239.629974 10.822737,167.057495 61.574612,103.101364 
	C96.895821,58.590530 143.355209,30.932112 198.596069,18.114786 
	C219.070892,13.364088 239.931290,11.265124 260.955475,12.070765 
	C266.712769,12.291382 272.586853,12.155415 278.303436,13.610302 
	C287.416992,15.929728 293.056854,24.045553 291.560913,33.000118 
	C289.959229,42.587818 281.805603,48.959579 272.310883,48.073792 
	C236.639862,44.745930 202.179520,49.852085 169.409256,64.253159 
	C110.400421,90.184921 71.026199,134.241913 51.071068,195.422775 
	C42.633831,221.290680 39.826443,247.903580 42.062206,275.177673 
	C45.653198,318.984100 60.951447,358.069092 88.575447,392.065094 
	C121.707008,432.839050 164.525284,458.421082 216.185394,467.300018 
	C327.558075,486.441895 432.829254,416.524841 458.653442,306.196686 
	C468.125031,265.731415 465.304047,225.841812 451.322235,186.739380 
	C449.377686,181.301086 447.781097,175.953430 450.345703,170.278809 
	C453.378723,163.567795 458.475830,159.880478 465.894348,159.691605 
	C473.651917,159.494064 479.651917,162.698135 482.633575,169.938522 
	C488.668518,184.593369 492.528564,199.903671 495.370148,215.476730 
	C495.787048,217.761673 496.237854,220.040421 496.836487,222.661011 
	C497.000000,246.354233 497.000000,269.708466 496.863708,293.888611 
	C493.487488,314.799896 488.441803,334.376770 480.409821,353.127594 
	C451.652069,420.263306 402.894562,466.267151 334.414398,491.510345 
	C329.294128,493.397797 323.727966,494.028412 319.000000,497.000000 
	C275.312439,497.000000 231.624878,497.000000 187.468658,497.000000 
z"/>
<path fill="#FFFFFF" opacity="1.000000" stroke="none" 
	d="
M342.410706,277.373932 
	C321.462280,305.840820 300.571472,333.906982 280.065552,362.251556 
	C271.442017,374.171570 260.640900,382.090057 246.041611,384.763458 
	C229.209824,387.845673 212.607239,392.265564 195.606735,394.310699 
	C171.049286,397.264923 153.159103,378.219513 151.725739,357.197906 
	C150.740158,342.743591 150.007431,328.269501 148.824631,313.831879 
	C147.652969,299.530609 151.557343,287.082642 160.104309,275.514496 
	C220.800018,193.363937 281.331055,111.091583 341.816925,28.786278 
	C347.595215,20.923510 353.307831,13.262522 362.685150,9.303527 
	C376.919983,3.293740 390.479401,4.655252 402.920135,13.570578 
	C420.796082,26.380930 438.445587,39.512573 456.036255,52.714325 
	C475.934723,67.648056 479.340759,91.157120 464.613800,111.197975 
	C424.660248,165.567780 384.650269,219.896118 344.664398,274.242188 
	C343.973053,275.181793 343.303558,276.137482 342.410706,277.373932 
M296.436951,149.915024 
	C277.682251,175.405609 258.928772,200.897110 240.172470,226.386520 
	C222.896942,249.863586 205.622650,273.341553 188.336121,296.810486 
	C185.939514,300.064209 183.598282,303.387848 183.843323,307.651978 
	C184.711838,322.765106 185.581360,337.879761 186.674103,352.977661 
	C187.116104,359.084534 189.311722,360.479126 195.260345,359.271118 
	C209.099182,356.460876 222.892090,353.390930 236.794571,350.942688 
	C243.175476,349.819031 247.599869,346.860748 251.395554,341.682922 
	C299.853180,275.580017 348.420502,209.557388 397.092621,143.612259 
	C399.773499,139.980026 399.277466,138.269150 395.816895,135.766449 
	C378.133514,122.977837 360.523193,110.082787 343.110352,96.929665 
	C339.212372,93.985245 337.217102,94.288986 334.411713,98.180237 
	C322.041779,115.337929 309.406006,132.303925 296.436951,149.915024 
M377.095398,78.372948 
	C391.643738,89.086563 406.192047,99.800179 421.109070,110.785309 
	C426.390533,103.649223 431.307953,97.172356 436.035095,90.559471 
	C439.214691,86.111511 438.789825,83.809784 434.383331,80.468422 
	C428.548553,76.043999 422.634430,71.723862 416.740356,67.377991 
	C405.889709,59.377487 395.029053,51.390575 384.171997,43.398796 
	C381.496399,41.429306 378.221863,39.478596 375.710815,42.555859 
	C369.881805,49.699238 364.633514,57.316517 358.951721,65.009888 
	C365.290131,69.671242 370.908936,73.803368 377.095398,78.372948 
z"/>
</svg>