<svg version="1.1" id="Layer_1" xmlns="http://www.w3.org/2000/svg" xmlns:xlink="http://www.w3.org/1999/xlink" x="0px" y="0px"
	 width="100%" viewBox="0 0 500 500" enable-background="new 0 0 500 500" xml:space="preserve">
<path fill="#FFFFFF" opacity="1.000000" stroke="none" 
	d="
M97.692917,487.692291 
	C98.390587,484.965576 98.942322,482.191589 99.807480,479.519104 
	C117.837753,423.822601 135.875809,368.128540 154.028061,312.471741 
	C155.172897,308.961578 154.879211,306.946930 151.629486,304.592285 
	C102.820488,269.226624 54.130241,233.697098 5.418395,198.197418 
	C4.403817,197.458054 3.464292,196.615707 1.481503,194.999603 
	C4.411949,194.999603 6.159808,194.999588 7.907666,194.999588 
	C67.232269,194.999573 126.557060,194.938782 185.881134,195.118088 
	C190.493835,195.132019 192.479492,193.871948 193.904373,189.426697 
	C212.128952,132.570923 230.563019,75.782326 248.952454,18.979425 
	C249.445740,17.455708 250.034622,15.962938 251.096619,13.022189 
	C252.544098,17.542171 253.562500,20.755667 254.601730,23.962404 
	C272.547577,79.337181 290.538971,134.697327 308.351746,190.114868 
	C309.599792,193.997681 311.334503,195.108002 315.349609,195.098343 
	C374.840485,194.955124 434.331879,194.999573 493.823120,194.999603 
	C495.615845,194.999603 497.408569,194.999603 500.757690,194.999603 
	C496.400757,198.241058 493.191162,200.672150 489.937653,203.042953 
	C443.646576,236.774200 397.389465,270.552429 350.978912,304.118439 
	C347.245361,306.818695 346.825867,309.099548 348.155243,313.172913 
	C366.730408,370.089447 385.155365,427.054962 403.604828,484.012451 
	C403.911133,484.958008 404.067108,485.952271 404.193115,487.416962 
	C404.092957,487.910126 403.901337,488.109863 403.901337,488.109863 
	C392.953491,480.272003 381.951141,472.508942 371.067535,464.582916 
	C331.357971,435.664185 291.688293,406.690674 251.997406,377.746277 
	C251.742172,377.560120 251.400589,377.492340 250.768204,377.234039 
	C200.202423,414.075134 149.489990,451.023071 98.338936,487.937073 
	C97.900330,487.903137 97.692917,487.692291 97.692917,487.692291 
z"/>
<path fill="#FFFFFF" opacity="1.000000" stroke="none" 
	d="
M98.002899,488.009644 
	C97.917473,488.306641 97.729477,488.497131 97.541473,488.687622 
	C97.481888,488.446777 97.422318,488.205933 97.527832,487.828674 
	C97.692917,487.692291 97.900330,487.903137 98.002899,488.009644 
z"/>
<path fill="#FFFFFF" opacity="1.000000" stroke="none" 
	d="
M404.189972,487.811462 
	C404.437622,487.932739 404.588226,488.152710 404.738831,488.372650 
	C404.519165,488.412018 404.299469,488.451355 403.990540,488.300293 
	C403.901337,488.109863 404.092957,487.910126 404.189972,487.811462 
z"/>
</svg>