<?xml version="1.0" standalone="no"?>
<!DOCTYPE svg PUBLIC "-//W3C//DTD SVG 20010904//EN"
 "http://www.w3.org/TR/2001/REC-SVG-20010904/DTD/svg10.dtd">
<svg version="1.0" xmlns="http://www.w3.org/2000/svg"
 width="500.000000pt" height="500.000000pt" viewBox="0 0 500.000000 500.000000"
 preserveAspectRatio="xMidYMid meet">
<metadata>
Created by potrace 1.16, written by Peter Selinger 2001-2019
</metadata>
<g transform="translate(0.000000,500.000000) scale(0.100000,-0.100000)"
fill="#FFFFFF" stroke="none">
<path d="M2259 4395 c-30 -47 -58 -85 -62 -85 -5 0 -44 29 -87 65 l-77 64 -42
-89 c-22 -50 -41 -95 -41 -100 0 -17 -12 -12 -99 40 -46 28 -87 50 -91 50 -4
0 -10 -13 -12 -29 -2 -17 -1 -28 4 -25 4 3 8 12 8 20 0 20 2 19 77 -29 122
-79 107 -81 158 29 51 109 36 108 144 15 55 -48 65 -53 75 -39 6 9 33 51 60
94 l49 78 49 -54 c28 -30 44 -44 37 -30 -15 30 -80 110 -90 110 -4 0 -31 -38
-60 -85z"/>
<path d="M2340 3943 c-88 -9 -247 -46 -341 -79 -228 -79 -410 -193 -579 -363
-209 -210 -333 -434 -395 -714 -22 -98 -31 -353 -16 -458 123 -866 1006 -1429
1900 -1213 271 66 509 201 716 409 257 257 385 529 416 881 36 420 -145 861
-473 1153 -232 206 -544 346 -846 381 -82 9 -306 11 -382 3z m130 -92 c0 -5
-36 -12 -80 -15 -69 -6 -80 -10 -80 -26 0 -43 8 -48 76 -42 84 6 86 -13 2 -25
l-63 -8 3 -35 c2 -19 4 -44 5 -55 1 -10 -5 -21 -13 -22 -13 -3 -20 19 -37 104
-12 59 -18 111 -14 116 8 8 181 25 194 19 4 -2 7 -7 7 -11z m185 -23 c23 -57
65 -179 65 -190 0 -4 -9 -8 -20 -8 -14 0 -22 10 -28 33 -8 32 -9 32 -74 35
-64 3 -65 2 -78 -28 -12 -29 -40 -42 -40 -17 0 6 15 44 33 82 60 128 65 135
96 135 25 0 31 -6 46 -42z m331 -22 c57 -27 66 -36 55 -55 -6 -9 -17 -6 -46
13 -92 63 -184 35 -185 -55 0 -58 79 -107 149 -93 32 7 38 0 22 -25 -12 -18
-104 -6 -153 22 -35 19 -68 67 -68 100 0 35 25 80 54 98 43 26 109 24 172 -5z
m-806 10 c0 -2 2 -10 5 -18 4 -10 -8 -13 -47 -14 -68 -1 -120 -27 -116 -57 3
-21 7 -22 91 -18 95 3 117 -5 117 -45 0 -34 -38 -71 -93 -88 -64 -21 -103 -21
-109 2 -4 14 3 17 46 18 66 1 118 27 114 57 -3 21 -7 22 -93 19 -80 -3 -92 -2
-109 16 -11 13 -15 28 -11 41 9 29 62 66 110 79 42 10 95 15 95 8z m990 -77
c102 -47 153 -80 142 -91 -6 -6 -27 -1 -59 16 l-50 25 -47 -89 c-38 -73 -50
-87 -66 -83 -11 3 -18 8 -16 12 21 40 76 159 78 169 2 8 -16 21 -42 32 -25 9
-47 25 -48 35 -5 21 15 16 108 -26z m-1407 -92 c3 -8 -13 -25 -39 -41 -24 -15
-44 -31 -44 -34 0 -4 27 -41 60 -82 51 -64 57 -77 45 -89 -15 -15 -23 -8 -102
91 -21 26 -41 47 -44 48 -3 0 -24 -16 -46 -35 -33 -28 -43 -32 -52 -21 -12 14
18 42 138 128 73 52 77 54 84 35z m887 -87 c493 -49 888 -410 965 -882 19
-115 19 -188 1 -299 -36 -218 -133 -408 -289 -564 -155 -155 -336 -253 -557
-303 -106 -23 -377 -23 -478 1 -225 54 -394 145 -544 294 -205 203 -308 445
-308 726 0 385 225 736 586 916 200 99 395 134 624 111z m887 -81 c57 -21 113
-93 113 -143 0 -66 -70 -123 -140 -113 -71 9 -130 75 -130 143 0 46 19 78 64
105 36 22 53 23 93 8z m-1870 -120 c42 -18 45 -21 31 -35 -13 -14 -19 -14 -50
-1 l-35 15 -39 -46 -38 -45 18 -30 c15 -26 15 -32 3 -44 -12 -13 -21 -4 -59
64 -84 146 -83 142 -58 168 l22 23 79 -24 c44 -14 100 -34 126 -45z m-308
-118 c12 -8 8 -15 -18 -36 -37 -32 -61 -74 -61 -110 0 -42 34 -31 86 30 58 68
88 79 121 41 29 -34 29 -50 -2 -113 -31 -61 -58 -88 -81 -79 -15 6 -13 11 13
39 38 40 53 68 53 100 0 42 -29 42 -64 0 -54 -64 -88 -93 -107 -93 -26 0 -59
35 -59 63 1 32 37 107 67 140 29 30 32 31 52 18z m2395 -20 c14 -26 13 -32
-11 -77 -14 -27 -39 -68 -55 -91 -16 -24 -25 -43 -20 -43 5 0 42 14 83 30 69
29 75 30 86 14 7 -10 11 -19 10 -20 -2 -2 -53 -21 -115 -42 l-112 -40 -6 24
c-4 16 3 36 24 66 42 61 84 140 78 145 -3 3 -41 -15 -86 -38 -67 -37 -82 -42
-90 -29 -5 8 -8 15 -7 16 10 9 194 114 199 114 4 0 14 -13 22 -29z m-2433
-530 c35 -35 39 -44 39 -88 0 -110 -109 -165 -211 -106 -93 54 -69 199 36 226
11 2 37 5 59 6 32 1 45 -5 77 -38z m2563 -15 c50 -21 76 -60 76 -116 0 -103
-93 -154 -202 -111 -58 22 -85 110 -53 171 29 57 114 83 179 56z m-206 -585
c10 -6 6 -15 -16 -39 -39 -42 -59 -89 -45 -111 20 -31 41 -23 82 33 56 76 92
93 125 60 33 -33 14 -116 -42 -183 -19 -23 -32 -30 -45 -26 -15 6 -12 13 22
50 38 41 59 94 46 115 -14 23 -45 7 -84 -45 -56 -74 -107 -86 -132 -31 -16 34
-4 85 32 140 32 48 36 51 57 37z m-2208 -81 c8 -15 4 -29 -23 -72 -40 -63 -77
-133 -77 -147 0 -9 40 11 136 70 26 16 33 17 43 5 9 -11 -6 -24 -77 -69 -115
-73 -116 -73 -136 -42 -17 25 -16 28 33 120 27 52 47 95 45 95 -3 0 -31 -12
-62 -26 -67 -30 -105 -35 -109 -14 -2 11 28 27 104 57 60 23 109 42 110 42 1
1 7 -8 13 -19z m2122 -182 c26 -40 54 -90 64 -110 17 -36 17 -38 -1 -58 -20
-23 -24 -22 -167 21 -54 16 -98 34 -98 40 0 16 28 22 60 11 27 -10 32 -8 65
30 39 47 41 55 20 85 -14 20 -11 53 4 53 4 0 28 -33 53 -72z m-1934 -94 c80
-61 81 -157 3 -213 -36 -26 -71 -27 -119 -2 -46 23 -67 46 -87 95 -18 42 -13
70 19 105 50 55 122 61 184 15z m1737 -144 c33 -37 64 -69 70 -69 5 -1 25 15
45 34 25 25 39 32 50 25 11 -7 4 -18 -35 -52 -82 -72 -158 -129 -168 -125 -24
8 -15 24 28 51 l45 28 -27 33 c-16 18 -45 54 -66 79 -36 42 -41 67 -14 65 7 0
39 -31 72 -69z m-1377 -109 c10 -6 6 -22 -17 -72 -57 -124 -57 -116 -1 -136
47 -17 68 -43 35 -43 -32 0 -245 94 -245 108 0 20 14 19 63 -4 l52 -24 45 90
c24 50 47 90 50 90 3 0 11 -4 18 -9z m1052 5 c0 -2 3 -11 6 -20 5 -13 -1 -16
-32 -16 -56 -1 -124 -34 -124 -60 0 -29 22 -34 90 -20 71 15 107 8 122 -25 22
-49 -46 -105 -146 -120 -36 -6 -50 -4 -57 6 -14 22 -12 24 41 26 55 1 113 29
118 56 5 26 -24 31 -93 18 -69 -14 -96 -7 -115 29 -14 26 4 62 42 85 41 24
148 54 148 41z m-834 -67 c89 -23 132 -97 100 -173 -20 -48 -70 -71 -139 -62
-67 7 -121 35 -125 64 -4 28 -1 28 44 -3 20 -13 51 -27 70 -31 96 -18 152 80
85 147 -26 26 -36 29 -90 29 -44 0 -61 4 -61 13 0 30 38 35 116 16z m588 -91
c10 -46 22 -95 26 -110 8 -25 6 -27 -38 -37 -65 -15 -156 -18 -162 -6 -3 6 27
15 70 22 41 6 76 12 78 12 2 1 2 13 0 29 -3 24 -6 27 -38 24 -19 -1 -50 -5
-67 -8 -25 -4 -33 -1 -33 10 0 10 14 17 38 21 90 15 85 10 77 70 -6 50 -5 55
12 55 16 0 22 -15 37 -82z m-388 27 c14 -34 15 -35 74 -35 59 0 60 1 74 35 10
24 22 35 35 35 21 0 21 -1 -3 -62 -13 -35 -36 -89 -51 -120 -24 -52 -30 -58
-56 -58 -27 0 -33 6 -56 58 -14 31 -36 85 -49 120 -24 61 -24 62 -3 62 13 0
25 -11 35 -35z"/>
<path d="M1861 2838 c-7 -35 -17 -85 -23 -112 -9 -42 -8 -51 6 -61 14 -11 16
-39 16 -219 l0 -207 53 3 52 3 0 325 0 325 -46 3 -46 3 -12 -63z"/>
<path d="M2040 2880 c-19 -19 -20 -33 -20 -305 l0 -286 25 -24 c22 -23 31 -25
128 -25 90 0 108 3 131 21 l26 20 0 290 c0 355 12 329 -155 329 -102 0 -117
-2 -135 -20z m180 -310 l0 -230 -45 0 -45 0 0 230 0 230 45 0 45 0 0 -230z"/>
<path d="M2400 2880 c-19 -19 -20 -33 -20 -309 l0 -290 26 -20 c23 -18 41 -21
129 -21 88 0 106 3 129 21 l26 20 0 294 c0 354 14 325 -157 325 -100 0 -115
-2 -133 -20z m180 -310 l0 -230 -45 0 -45 0 0 230 0 230 45 0 45 0 0 -230z"/>
<path d="M2731 2874 c-19 -24 -21 -40 -21 -154 0 -170 4 -175 124 -175 83 0
85 -1 72 -20 -60 -93 -147 -258 -142 -271 4 -11 17 -14 47 -12 40 3 43 5 85
78 24 41 53 93 64 115 12 22 30 51 40 65 l20 25 0 -127 c0 -153 4 -158 113
-158 66 0 104 11 119 34 4 6 8 74 8 152 0 173 1 172 -118 176 l-82 3 75 130
c41 72 75 138 75 148 0 14 -9 17 -44 17 l-44 0 -79 -136 -78 -137 -5 120 c-3
81 -10 125 -19 137 -11 13 -32 16 -101 16 -84 0 -90 -1 -109 -26z"/>
<path d="M3458 3427 c-57 -48 -61 -86 -14 -133 43 -43 90 -46 135 -8 44 37 43
84 -3 130 -41 41 -79 44 -118 11z"/>
<path d="M1541 1717 c-39 -20 -65 -61 -57 -93 11 -42 62 -84 103 -84 72 0 120
92 75 146 -34 43 -78 54 -121 31z"/>
<path d="M1875 801 c-6 -5 -39 -24 -74 -42 -36 -18 -60 -34 -54 -36 6 -2 39
10 72 26 33 17 62 31 64 31 2 0 21 -45 42 -100 l37 -100 52 37 c28 20 68 50
88 65 l37 29 33 -58 c18 -32 42 -75 53 -95 l19 -38 82 78 c72 68 98 102 78
102 -3 0 -37 -30 -74 -66 -38 -36 -72 -66 -76 -66 -4 0 -24 29 -44 64 -19 36
-42 75 -50 87 l-15 22 -84 -61 c-46 -34 -87 -58 -91 -53 -4 4 -22 47 -41 96
-33 88 -37 94 -54 78z"/>
</g>
</svg>
