<svg version="1.1" id="Layer_1" xmlns="http://www.w3.org/2000/svg" xmlns:xlink="http://www.w3.org/1999/xlink" x="0px" y="0px"
	 width="100%" viewBox="0 0 500 500" enable-background="new 0 0 500 500" xml:space="preserve">
<path fill="#FBBA58" opacity="1.000000" stroke="none" 
	d="
M293.247559,307.311676 
	C355.095276,287.329071 393.822937,226.969406 386.362793,163.403549 
	C379.215912,102.507210 328.109833,46.644470 253.228851,44.744034 
	C253.228851,39.709900 253.228851,34.646202 253.228851,28.598433 
	C303.516785,29.978394 344.839508,49.805183 374.120819,90.628426 
	C410.303925,141.074051 414.267975,195.804520 385.041870,250.445602 
	C357.445526,302.039642 312.029663,327.400848 252.665436,329.973145 
	C258.172455,259.829651 253.552261,190.271667 255.388977,120.416962 
	C264.750580,120.416962 274.163116,120.416962 283.925995,120.416962 
	C293.212982,147.344162 302.566803,174.465088 311.920624,201.586014 
	C312.341309,201.608627 312.761963,201.631241 313.182648,201.653839 
	C313.805603,200.060944 314.487518,198.488312 315.042694,196.872101 
	C323.357056,172.666763 331.723328,148.478714 339.873627,124.218163 
	C340.953979,121.002380 342.304535,119.831619 345.768707,119.970711 
	C353.391937,120.276802 361.035919,120.065720 368.993744,120.065720 
	C368.993744,157.142609 368.993744,193.845551 368.993744,230.777237 
	C362.264221,230.777237 355.659424,230.777237 348.391785,230.777237 
	C348.391785,206.508957 348.391785,182.324829 348.391785,158.140717 
	C347.818085,158.015762 347.244385,157.890808 346.670685,157.765854 
	C338.185120,182.013168 329.699585,206.260498 321.042053,230.999207 
	C315.593140,230.999207 310.133148,231.248840 304.728607,230.812210 
	C303.479492,230.711288 301.908478,228.444244 301.350433,226.867813 
	C293.808258,205.561981 286.424866,184.200012 278.981354,162.859192 
	C278.366516,161.096359 277.600830,159.386169 276.905212,157.651520 
	C276.479370,157.748444 276.053558,157.845352 275.627747,157.942276 
	C275.010559,209.060928 274.393402,260.179596 273.765656,312.173279 
	C280.458893,310.523956 286.668518,308.993774 293.247559,307.311676 
z"/>
<path fill="#FBFBFB" opacity="1.000000" stroke="none" 
	d="
M184.025330,44.020828 
	C204.639755,34.224060 225.947128,29.241379 249.669327,29.435186 
	C250.558670,97.559288 249.645798,165.547653 250.038132,234.087036 
	C243.245773,234.087036 236.810471,234.099594 230.375229,234.084290 
	C218.711670,234.056564 207.042740,234.221970 195.385971,233.921738 
	C180.841568,233.547150 170.252701,226.175934 166.910233,214.613007 
	C163.274063,202.033997 167.236450,191.190948 178.167542,183.757141 
	C178.940750,183.231308 179.640701,182.597717 180.846481,181.639221 
	C179.381195,180.900177 178.463898,180.321716 177.468826,179.953125 
	C164.032303,174.975922 157.063278,165.142563 157.091309,151.145615 
	C157.123062,135.301895 164.335861,123.672424 177.835724,119.189384 
	C183.427872,117.332336 189.511566,116.392288 195.416153,116.158752 
	C207.049088,115.698654 218.713028,116.023193 230.688599,116.023193 
	C230.688599,92.951782 230.688599,70.061134 230.688599,47.166019 
	C180.847504,51.684330 117.955536,97.362007 114.843590,174.927261 
	C111.947479,247.112717 168.527176,312.373840 248.884491,314.229889 
	C248.884491,319.305145 248.884491,324.392242 248.884491,329.878906 
	C236.699829,330.656128 224.761795,328.718475 212.993896,325.847961 
	C152.452377,311.080017 106.347725,258.598419 99.463898,196.818481 
	C92.517418,134.476181 124.574638,74.577385 180.157623,46.033737 
	C181.340652,45.426212 182.498566,44.769753 184.025330,44.020828 
M202.746155,169.629364 
	C210.516098,169.629364 218.286057,169.629364 226.156403,169.629364 
	C226.156403,157.697083 226.156403,146.329987 226.156403,134.942184 
	C215.547745,134.942184 205.261688,134.663544 195.001022,135.053375 
	C189.419022,135.265442 184.843597,138.063477 182.412323,143.477890 
	C176.648666,156.313477 183.410248,168.077072 197.327759,169.435059 
	C198.813705,169.580048 200.315018,169.567581 202.746155,169.629364 
M203.833740,187.022202 
	C201.699509,187.333923 199.508591,187.436432 197.441696,187.996628 
	C191.258087,189.672607 188.035507,194.451309 188.048141,201.587372 
	C188.061447,209.094559 191.232132,214.921371 197.535858,215.496567 
	C207.014801,216.361496 216.631042,215.721771 226.319000,215.721771 
	C226.319000,206.296356 226.319000,196.860687 226.319000,187.006180 
	C219.030334,187.006180 211.898331,187.006180 203.833740,187.022202 
z"/>
<path fill="#EEEEEE" opacity="1.000000" stroke="none" 
	d="
M215.481689,360.103333 
	C216.854080,361.773071 216.779572,361.665680 218.529449,360.451752 
	C223.022217,357.334991 227.507019,354.189636 232.181702,351.364594 
	C233.321960,350.675507 235.180481,351.174957 236.708740,351.127930 
	C236.356796,352.721985 236.550568,354.918701 235.564056,355.811951 
	C229.294922,361.488770 222.717743,366.823578 216.350449,372.394928 
	C214.461777,374.047516 212.922073,376.098907 211.222473,377.967590 
	C211.806183,378.644562 212.389908,379.321533 212.973633,379.998505 
	C217.776962,376.993927 222.604996,374.027893 227.373535,370.969116 
	C229.885101,369.358093 232.248688,367.516541 234.758270,365.902191 
	C238.141541,363.725739 241.529709,363.595154 245.408920,366.728790 
	C243.029358,369.713837 240.640747,372.710266 238.252136,375.706696 
	C238.560013,376.095337 238.867905,376.483978 239.175797,376.872620 
	C242.309021,374.755341 245.302490,372.380615 248.610214,370.584686 
	C252.927765,368.240417 257.418152,366.149719 262.017029,364.442505 
	C262.947052,364.097260 264.692169,365.947845 266.061523,366.786102 
	C264.065887,368.531250 262.193207,370.467163 259.988617,371.888031 
	C259.433960,372.245544 257.815918,370.953064 256.686554,370.418854 
	C256.484314,369.824707 256.282074,369.230560 256.079834,368.636444 
	C253.343826,371.859985 250.607803,375.083527 247.871780,378.307068 
	C248.338715,378.926514 248.805634,379.545929 249.272568,380.165375 
	C252.129089,379.226562 255.223938,378.708893 257.789948,377.256775 
	C262.407898,374.643463 266.632385,371.344666 271.170380,368.576752 
	C273.975067,366.866119 276.959686,365.312744 280.063629,364.305054 
	C281.153290,363.951263 283.292694,365.104004 284.091766,366.197815 
	C284.612701,366.910889 284.017883,369.422638 283.169037,369.979462 
	C279.805725,372.185822 276.132812,373.916779 272.601959,375.873260 
	C271.397919,376.540466 270.274200,377.352661 269.589905,378.878815 
	C280.017883,379.136749 286.782928,371.739136 295.598663,367.969727 
	C294.188080,369.375641 292.957581,371.050171 291.334106,372.138519 
	C285.828827,375.829224 280.438019,379.827942 274.524841,382.735657 
	C268.119385,385.885468 265.468964,384.054840 264.542969,377.165466 
	C260.386261,379.196899 256.369598,381.528442 252.086685,383.161835 
	C246.453613,385.310150 244.655426,384.058167 243.657059,378.064789 
	C240.473099,380.103333 237.331085,382.115021 233.531830,384.547485 
	C232.889191,382.124969 232.455048,380.488434 232.021240,378.855469 
	C221.633057,386.024353 222.901138,385.101562 219.854935,380.427643 
	C218.479614,381.230377 217.171127,382.467651 215.679977,382.754059 
	C213.414383,383.189270 210.152725,383.906464 208.917816,382.766571 
	C207.570953,381.523315 207.144409,377.927643 207.926712,376.016449 
	C209.534515,372.088531 212.254349,368.622650 214.432785,364.917419 
	C215.126526,363.737427 215.555603,362.401886 215.589508,360.838135 
	C215.170471,360.358093 215.306625,360.212952 215.481689,360.103333 
M235.846634,369.435455 
	C233.206207,371.691101 230.565781,373.946716 227.925354,376.202362 
	C228.287476,376.623596 228.649582,377.044800 229.011703,377.466034 
	C231.767288,375.080994 234.522858,372.695953 237.829559,370.096130 
	C238.490112,369.652893 239.150650,369.209686 239.811203,368.766479 
	C239.523285,368.471924 239.235382,368.177399 238.947479,367.882843 
	C238.125946,368.306030 237.304428,368.729187 235.846634,369.435455 
M257.869141,368.715454 
	C258.365967,368.905029 258.853729,369.158112 259.367157,369.231750 
	C259.472717,369.246857 259.674377,368.591614 259.831726,368.245392 
	C259.410339,368.168396 258.988983,368.091400 257.869141,368.715454 
z"/>
<path fill="#F1F1F1" opacity="1.000000" stroke="none" 
	d="
M335.388428,348.163452 
	C337.043213,347.727692 338.412170,347.000305 339.607910,347.219177 
	C341.255432,347.520782 343.305573,348.158691 344.167389,349.373352 
	C344.798553,350.262909 344.224670,352.588318 343.446930,353.796906 
	C339.933105,359.257355 334.409393,361.872223 328.490417,363.970062 
	C326.411407,364.706909 324.241425,365.912292 322.780853,367.513092 
	C320.016876,370.542389 317.735962,374.012421 315.159668,377.424744 
	C319.831024,378.315521 324.270813,379.162140 328.854858,380.036285 
	C331.756744,374.578491 333.350098,367.245880 342.045654,366.581360 
	C339.288116,370.512848 336.530579,374.444366 333.773071,378.375854 
	C350.663818,374.537994 357.337555,357.419373 371.278748,350.106262 
	C371.677917,350.562500 372.077118,351.018707 372.476288,351.474915 
	C367.906830,356.465027 363.337372,361.455139 358.767914,366.445221 
	C358.973083,366.749939 359.178223,367.054626 359.383392,367.359314 
	C360.374329,367.172485 361.385132,366.760315 362.352142,366.845428 
	C364.413635,367.026855 366.452393,367.466309 368.500488,367.800049 
	C367.414001,369.461548 366.675690,371.621155 365.165619,372.676697 
	C362.369537,374.631226 359.121979,375.939880 355.561493,377.775879 
	C358.054871,380.084381 360.448761,382.300781 362.814423,384.491028 
	C359.613617,386.299835 359.613617,386.299835 349.996246,377.471313 
	C348.188202,379.546692 346.389099,381.611816 343.613007,384.798401 
	C342.543518,383.727295 341.560699,382.743011 340.248383,381.428711 
	C336.106018,384.475464 330.469421,385.500854 323.851776,384.332550 
	C316.235718,382.988037 308.621307,382.874176 301.450653,387.852661 
	C298.356049,390.001129 293.236206,390.488342 289.326538,389.876434 
	C284.846191,389.175201 284.213776,384.590881 288.227875,382.366058 
	C292.169525,380.181396 296.784729,378.595886 301.246399,378.141083 
	C305.609131,377.696350 308.558472,376.303497 311.208740,372.868011 
	C315.680420,367.071411 320.414703,361.444702 325.424225,356.108643 
	C328.223358,353.126984 331.799377,350.874695 335.388428,348.163452 
M327.429230,362.431580 
	C327.743469,362.249908 328.057709,362.068268 329.045532,361.636810 
	C333.232086,358.066711 337.418610,354.496582 341.605133,350.926453 
	C341.186676,350.480042 340.768219,350.033630 340.349762,349.587189 
	C334.928650,351.869507 330.966095,355.869446 327.276947,361.003906 
	C327.184509,361.335846 327.092072,361.667786 326.465912,362.135223 
	C326.507996,362.346558 326.550079,362.557922 326.592194,362.769257 
	C326.742188,362.522217 326.892181,362.275177 327.429230,362.431580 
M294.502380,387.300873 
	C296.191772,386.452698 297.881165,385.604553 299.570526,384.756378 
	C299.418701,384.345184 299.266876,383.933990 299.115051,383.522797 
	C295.683502,384.505829 292.251984,385.488861 288.820435,386.471863 
	C288.932037,387.004364 289.043671,387.536835 289.155273,388.069305 
	C290.699829,387.919861 292.244354,387.770386 294.502380,387.300873 
M358.000000,367.500000 
	C358.199982,367.633331 358.399994,367.766663 358.600006,367.899994 
	C358.566681,367.600006 358.533356,367.299988 358.000000,367.500000 
z"/>
<path fill="#F0F0F0" opacity="1.000000" stroke="none" 
	d="
M143.136261,375.499420 
	C141.166275,377.291504 139.057877,378.956512 137.264053,380.910339 
	C135.352066,382.992828 134.202545,387.315796 130.769562,385.289886 
	C129.149292,384.333679 128.840012,379.940826 129.147491,377.243134 
	C129.525101,373.930115 131.168350,370.761292 131.277039,366.850250 
	C130.271606,367.938385 129.316803,369.078979 128.252701,370.106323 
	C120.376160,377.710480 112.553490,385.373291 104.541031,392.832001 
	C102.090973,395.112701 99.248688,395.516113 96.396240,391.125305 
	C99.856339,388.993713 103.231117,386.938721 106.578941,384.840698 
	C107.945091,383.984558 109.454552,383.231262 110.555809,382.097870 
	C120.750458,371.606110 130.821304,360.993652 141.060883,350.546387 
	C142.716812,348.856842 145.025803,347.807343 147.032928,346.462006 
	C147.459244,346.887299 147.885559,347.312592 148.311874,347.737885 
	C143.878296,356.510651 139.444733,365.283417 135.011154,374.056183 
	C135.553741,374.366028 136.096313,374.675903 136.638901,374.985748 
	C140.861511,369.436432 144.765182,363.601959 149.398132,358.419495 
	C153.860718,353.427582 158.277664,347.547821 163.722107,348.635284 
	C159.412537,353.824493 154.231873,360.062592 149.039459,366.639771 
	C149.027725,366.978882 148.999954,366.919769 148.626770,367.049072 
	C148.156799,367.807709 148.060013,368.437042 148.011810,369.055298 
	C148.060379,369.044189 148.059677,368.944519 147.645447,368.746460 
	C147.134659,369.052277 147.038101,369.556122 146.993347,370.058350 
	C147.045166,370.056763 147.070343,369.956146 146.709869,369.696838 
	C146.104965,369.604462 145.860519,369.771423 145.415009,370.096069 
	C144.795319,370.783661 144.376678,371.313660 143.902100,372.142975 
	C143.873474,372.643433 143.900787,372.844604 143.977875,373.030334 
	C144.027664,373.014893 144.005569,372.913025 143.562500,373.099121 
	C143.072113,374.048767 143.024796,374.812286 143.033676,375.590973 
	C143.089859,375.606140 143.136261,375.499420 143.136261,375.499420 
M134.997223,376.408722 
	C135.421051,376.368561 135.844864,376.328400 136.268692,376.288269 
	C136.226059,375.912140 136.183426,375.536011 136.140778,375.159882 
	C135.789230,375.276154 135.437668,375.392456 134.997223,376.408722 
z"/>
<path fill="#E9AC51" opacity="1.000000" stroke="none" 
	d="
M198.127899,449.439178 
	C199.158081,450.461060 200.227173,451.571259 201.348267,451.626465 
	C206.637802,451.887115 211.944336,451.788483 217.237915,451.994720 
	C218.259628,452.034546 219.250565,452.864502 220.255707,453.329956 
	C220.144287,453.739288 220.032883,454.148651 219.921478,454.558014 
	C211.788330,454.558014 203.655197,454.558014 195.094940,454.558014 
	C193.989380,448.347412 196.237488,443.166901 201.294067,439.174347 
	C204.154938,436.915466 207.315887,435.038483 210.322968,432.962402 
	C213.748413,430.597443 215.644302,427.556122 214.670456,423.196747 
	C213.835327,419.458344 211.303864,417.572479 207.776093,416.898407 
	C203.622757,416.104797 199.826324,416.808929 196.969147,420.252350 
	C195.977356,421.447540 195.148026,422.777557 194.244492,424.045990 
	C193.817780,423.897095 193.391052,423.748199 192.964340,423.599274 
	C193.138321,422.346893 193.016708,420.952850 193.537277,419.866577 
	C195.826996,415.088776 202.563583,412.508514 208.627533,413.911102 
	C214.590958,415.290405 218.415955,419.245117 217.714233,425.138580 
	C217.311417,428.521484 215.040680,432.052887 212.706207,434.727936 
	C210.485565,437.272461 206.773117,438.463562 204.297958,440.852173 
	C201.879868,443.185730 200.196625,446.280731 198.127899,449.439178 
z"/>
<path fill="#E9AD51" opacity="1.000000" stroke="none" 
	d="
M306.483185,414.124969 
	C319.473297,420.262115 323.484436,440.108063 314.236053,450.551605 
	C310.198578,455.110870 303.383789,455.661530 298.919434,450.694519 
	C296.117279,447.576843 293.617920,442.992065 293.462006,438.969391 
	C293.224854,432.852997 294.715027,426.543060 296.278168,420.524811 
	C297.458832,415.979156 300.926849,413.357422 306.483185,414.124969 
M315.939728,432.083801 
	C314.351166,428.468719 312.876923,424.797638 311.140869,421.254822 
	C309.504608,417.915741 306.306732,416.946716 303.206940,418.125732 
	C301.278748,418.859192 299.122650,421.041321 298.589722,422.989319 
	C297.290436,427.738617 296.151337,432.759766 296.349182,437.614319 
	C296.492310,441.126648 298.164093,445.142120 300.427979,447.879791 
	C304.589111,452.911621 310.630554,452.199341 313.258240,446.317566 
	C315.071716,442.258209 315.164520,437.430176 315.939728,432.083801 
z"/>
<path fill="#E9AD51" opacity="1.000000" stroke="none" 
	d="
M259.092773,447.763763 
	C253.850739,437.462311 255.630890,427.696045 260.399963,418.350830 
	C263.280212,412.706848 269.345612,412.304108 274.282257,416.778198 
	C281.437195,423.262512 284.302917,435.792145 280.687561,444.783417 
	C276.223785,455.884674 267.166412,457.282379 259.092773,447.763763 
M261.347260,423.075409 
	C260.653809,426.150452 259.199158,429.286194 259.438599,432.286804 
	C259.834961,437.253448 260.191315,442.802826 262.613312,446.893707 
	C266.335236,453.180237 273.285095,452.220459 276.803711,445.830627 
	C280.828186,438.522125 279.652191,428.143250 273.987030,420.971771 
	C269.892090,415.787994 264.806152,416.361938 261.347260,423.075409 
z"/>
<path fill="#EDEDED" opacity="1.000000" stroke="none" 
	d="
M214.044083,353.986084 
	C203.415787,348.959534 185.779434,353.209320 177.474503,363.609772 
	C181.169785,362.135681 184.865082,360.661560 188.560379,359.187439 
	C188.765060,359.368408 188.969757,359.549347 189.174438,359.730316 
	C187.137894,361.592407 185.257706,363.674683 183.024857,365.260315 
	C180.292648,367.200653 177.118790,368.181641 174.547058,365.061218 
	C172.156769,362.160919 173.640488,359.345825 175.723480,357.007599 
	C182.338165,349.582306 191.081787,346.657867 200.640701,346.264008 
	C206.628418,346.017303 212.195190,347.720673 215.421417,353.672150 
	C214.803787,353.995880 214.423935,353.990997 214.044083,353.986084 
z"/>
<path fill="#EEEEEE" opacity="1.000000" stroke="none" 
	d="
M214.079193,354.366150 
	C214.423935,353.990997 214.803787,353.995880 215.468567,354.000702 
	C215.831329,355.778717 215.909164,357.556793 215.734344,359.719116 
	C215.306625,360.212952 215.170471,360.358093 215.048279,360.636353 
	C208.623108,370.065155 198.351761,373.966919 190.523178,369.851349 
	C188.699692,372.363708 186.809525,374.873688 185.023727,377.455811 
	C183.349777,379.876221 181.786270,382.372986 178.903427,385.120880 
	C178.684875,383.027679 177.465042,380.076294 178.406754,378.977509 
	C185.702866,370.464539 193.405212,362.298920 201.039139,354.079071 
	C201.365540,353.727600 202.254456,353.898560 204.332855,353.658508 
	C199.969803,358.781250 196.361221,363.018127 192.620316,367.410431 
	C200.844757,368.195312 212.450790,361.213318 214.079193,354.366150 
z"/>
<path fill="#EAEAEA" opacity="1.000000" stroke="none" 
	d="
M367.287537,375.410278 
	C371.503998,371.589172 375.374878,367.842407 379.727814,364.781189 
	C380.823303,364.010773 383.463074,365.436371 385.393188,365.852753 
	C384.816528,367.554626 384.746674,370.055695 383.565735,370.804535 
	C380.366760,372.832977 376.620544,373.975952 373.253601,375.773926 
	C372.078369,376.401520 371.377258,377.916901 369.680664,379.969086 
	C381.318329,378.936737 388.105865,371.759338 397.312805,366.486847 
	C396.274750,368.274048 396.035980,369.233276 395.426300,369.650391 
	C388.889069,374.123047 382.439667,378.759674 375.619904,382.761200 
	C373.694244,383.891022 369.849213,384.090179 368.330292,382.888550 
	C366.922607,381.774902 367.446991,378.219055 367.287537,375.410278 
z"/>
<path fill="#ECECEC" opacity="1.000000" stroke="none" 
	d="
M143.134155,375.908539 
	C143.136261,375.499420 143.089859,375.606140 143.444855,375.388916 
	C143.868408,374.418823 143.936996,373.665924 144.005569,372.913025 
	C144.005569,372.913025 144.027664,373.014893 144.422775,373.176178 
	C144.531281,372.839539 144.244659,372.341583 143.958038,371.843658 
	C144.376678,371.313660 144.795319,370.783661 145.371826,370.512939 
	C146.043243,370.500153 146.556793,370.228149 147.070343,369.956146 
	C147.070343,369.956146 147.045166,370.056763 147.330475,370.081390 
	C147.763748,369.718842 147.911697,369.331665 148.059662,368.944519 
	C148.059677,368.944519 148.060379,369.044189 148.456268,368.989014 
	C148.901413,368.262451 148.950684,367.591125 148.999954,366.919769 
	C148.999954,366.919769 149.027725,366.978882 148.996643,366.978149 
	C150.265518,366.689789 151.553375,366.314972 152.867935,366.133118 
	C155.473846,365.772614 158.094467,365.518555 160.709015,365.220520 
	C160.453415,367.533173 160.197830,369.845825 159.656799,372.610046 
	C159.738342,373.275787 160.105316,373.489960 160.472290,373.704102 
	C163.893692,371.768097 167.315094,369.832062 170.736481,367.896057 
	C171.009232,368.209045 171.281982,368.522003 171.554733,368.834991 
	C168.166534,371.300690 164.851761,373.876526 161.368057,376.198975 
	C158.318207,378.232269 155.082504,379.987549 151.920593,381.851532 
	C150.788498,382.518921 149.662766,383.601471 148.479584,383.680786 
	C146.806900,383.792877 144.020950,383.635956 143.605652,382.727692 
	C142.770340,380.900757 143.215347,378.488434 143.134155,375.908539 
M150.889969,378.495392 
	C153.104446,376.661255 154.408646,374.802277 150.649323,372.410400 
	C149.194168,374.923584 147.824356,377.289368 146.454544,379.655182 
	C146.765823,379.899689 147.077118,380.144226 147.388397,380.388733 
	C148.343933,379.922943 149.299469,379.457153 150.889969,378.495392 
z"/>
<path fill="#E8AC51" opacity="1.000000" stroke="none" 
	d="
M240.471619,420.364380 
	C239.849442,419.316193 239.087753,418.096527 238.307495,418.084564 
	C233.654556,418.012848 228.997528,418.228027 224.341476,418.328644 
	C222.904633,418.359711 221.466537,418.333527 220.029022,418.333527 
	C219.949402,417.753967 219.869781,417.174408 219.790161,416.594818 
	C221.050385,416.177856 222.298218,415.448303 223.572968,415.397797 
	C229.219391,415.173950 234.883301,414.939362 240.517273,415.206451 
	C241.753174,415.265106 244.110809,417.709381 243.894135,418.464905 
	C240.471375,430.400238 236.715729,442.240204 233.001877,454.091217 
	C232.935638,454.302582 232.446304,454.381409 231.232086,454.966614 
	C231.325500,452.954742 231.090393,451.292084 231.521393,449.825073 
	C234.375641,440.110260 237.372833,430.437469 240.471619,420.364380 
z"/>
<path fill="#E6AA50" opacity="1.000000" stroke="none" 
	d="
M336.083557,414.319702 
	C337.185883,416.111908 338.406830,417.810303 338.567444,419.603638 
	C339.532837,430.384003 340.271484,441.185028 341.027710,451.983185 
	C341.090179,452.875275 340.719391,453.797699 339.724182,454.774719 
	C335.822876,443.156311 337.033173,430.826721 335.240814,418.369568 
	C332.792725,419.806976 330.872467,420.934448 328.861023,422.115479 
	C328.193237,418.622925 328.768036,417.997467 336.083557,414.319702 
z"/>
<path fill="#E6AA50" opacity="1.000000" stroke="none" 
	d="
M183.099243,443.918396 
	C182.554413,435.363342 182.039413,427.263306 181.478775,418.445465 
	C178.807205,419.867554 176.779037,420.947205 174.604675,422.104645 
	C174.466797,418.938477 180.191833,413.421631 182.360947,414.493927 
	C183.374130,414.994781 184.175507,416.804840 184.292877,418.092621 
	C185.001862,425.871429 185.469269,433.671967 186.050110,441.462799 
	C186.375870,445.832336 186.764435,450.197235 186.386749,454.703705 
	C182.614426,452.025269 184.224564,447.777313 183.099243,443.918396 
z"/>
</svg>