<svg version="1.1" id="Layer_1" xmlns="http://www.w3.org/2000/svg" xmlns:xlink="http://www.w3.org/1999/xlink" x="0px" y="0px"
	 width="100%" viewBox="0 0 500 500" enable-background="new 0 0 500 500" xml:space="preserve">
<path fill="#FFFFFF" opacity="1.000000" stroke="none" 
	d="
M81.010399,466.965149 
	C81.010399,392.807770 81.010872,319.148438 81.009819,245.489120 
	C81.009682,235.893799 78.912094,233.788101 69.283722,233.774841 
	C58.284840,233.759689 47.285900,233.781937 36.287041,233.759537 
	C34.711563,233.756332 33.136406,233.593674 30.041405,233.419098 
	C104.240005,165.460861 177.401810,98.452202 250.969727,31.071589 
	C324.394409,98.315514 397.594940,165.354172 471.855103,233.363220 
	C469.051331,233.559631 467.540253,233.753998 466.028809,233.757309 
	C454.363373,233.782928 442.697418,233.713120 431.032471,233.792450 
	C423.444275,233.844070 420.993073,236.441208 420.992554,244.120422 
	C420.987762,318.946320 420.989624,393.772186 420.989624,468.598083 
	C420.989624,470.402740 420.989624,472.207397 420.989624,474.194153 
	C388.835724,474.194153 357.094635,474.194153 324.849854,474.194153 
	C324.849854,472.248322 324.849823,470.460419 324.849854,468.672485 
	C324.849915,418.677460 324.852051,368.682434 324.847931,318.687408 
	C324.847260,310.438049 322.464752,308.097107 314.105377,308.096771 
	C272.776154,308.095032 231.446945,308.093170 190.117722,308.098541 
	C182.456924,308.099548 179.992935,310.558319 179.992188,318.204498 
	C179.987228,368.366180 179.989609,418.527832 179.989609,468.689514 
	C179.989609,470.489868 179.989609,472.290222 179.989609,474.233276 
	C146.903427,474.233276 114.277023,474.233276 81.010399,474.233276 
	C81.010399,471.996826 81.010399,469.729980 81.010399,466.965149 
z"/>
</svg>