<svg version="1.1" id="Layer_1" xmlns="http://www.w3.org/2000/svg" xmlns:xlink="http://www.w3.org/1999/xlink" x="0px" y="0px"
	 width="100%" viewBox="0 0 500 500" enable-background="new 0 0 500 500" xml:space="preserve">
<path fill="#FDFDFD" opacity="1.000000" stroke="none" 
	d="
M1.000002,223.468658 
	C1.654421,222.218735 2.789247,221.496262 2.893123,220.647583 
	C5.616382,198.398163 11.233753,176.904510 19.998699,156.292236 
	C43.117550,101.924286 80.746559,60.667507 132.774918,32.717606 
	C167.528763,14.047675 204.839676,4.903365 244.228546,4.043555 
	C245.060989,4.025384 245.896362,4.021814 246.726303,4.075065 
	C247.020020,4.093911 247.301544,4.302873 247.795471,4.513050 
	C247.795471,12.870087 247.795471,21.317408 247.795471,30.225464 
	C170.235825,32.814857 108.335541,65.143867 64.341049,129.546814 
	C38.975937,166.678436 26.970324,208.399628 27.658983,253.330475 
	C28.580975,313.485016 50.442932,365.307190 93.186737,407.615784 
	C135.788391,449.783630 187.773712,470.586273 247.808746,471.568848 
	C247.808746,480.412659 247.808746,488.867737 247.808746,498.271881 
	C239.302032,497.782623 230.711761,497.691772 222.219009,496.735260 
	C163.522781,490.124664 113.113358,465.949371 71.777786,423.811493 
	C32.908569,384.187836 9.945033,336.542938 2.919872,281.351898 
	C2.787875,280.314911 2.126050,279.345367 1.355716,278.672180 
	C1.000000,260.645782 1.000000,242.291550 1.000002,223.468658 
z"/>
<path fill="#FDBB58" opacity="1.000000" stroke="none" 
	d="
M501.000000,278.531372 
	C500.342407,279.811584 499.205750,280.563995 499.097229,281.443329 
	C496.370667,303.530518 490.807983,324.871185 482.130127,345.354065 
	C458.783203,400.461365 420.626343,442.076843 367.729187,470.047607 
	C333.446289,488.175598 296.737030,497.066711 258.028687,497.941315 
	C256.887909,497.967102 255.746017,497.944611 254.301712,497.944611 
	C254.301712,489.126495 254.301712,480.551147 254.301712,471.671997 
	C326.502777,469.614624 385.617493,440.918793 429.821198,383.499847 
	C459.827667,344.522644 474.588562,299.811157 474.332550,250.664413 
	C474.016998,190.093811 452.316193,137.815643 409.459930,95.031311 
	C366.754120,52.397133 314.475586,31.422733 253.997543,30.408655 
	C253.997543,22.757185 253.997543,15.602207 253.997543,8.447228 
	C253.997543,7.141072 253.997543,5.834916 253.997543,3.416622 
	C265.429596,4.345122 276.545135,4.680252 287.488037,6.232386 
	C342.524963,14.038795 389.950592,37.566639 429.071381,77.017387 
	C468.564423,116.843483 491.926361,164.820847 499.074738,220.570999 
	C499.209503,221.622162 499.865845,222.606445 500.639404,223.310974 
	C501.000000,241.354233 501.000000,259.708466 501.000000,278.531372 
z"/>
<path fill="#FDBC58" opacity="1.000000" stroke="none" 
	d="
M292.693054,235.346390 
	C290.686646,229.646622 288.941589,224.269272 286.902191,219.005951 
	C286.210785,217.221603 284.776123,215.725250 283.681091,214.097290 
	C283.100677,216.092377 282.019348,218.086136 282.014069,220.082748 
	C281.913574,258.069763 281.939911,296.057129 281.939911,334.044403 
	C281.939911,335.843964 281.939911,337.643494 281.939911,339.720154 
	C270.357849,339.720154 259.125031,339.720154 247.621521,339.720154 
	C247.621521,276.539093 247.621521,213.476746 247.621521,150.123749 
	C263.898407,150.123749 279.992767,150.123749 296.655853,150.123749 
	C300.681458,161.736237 304.826660,173.595734 308.905365,185.478058 
	C320.339783,218.789444 331.731201,252.115646 343.212982,285.410675 
	C343.755890,286.985016 345.004761,288.315948 345.924866,289.760254 
	C346.947205,288.241791 348.359680,286.857544 348.934814,285.185303 
	C363.955902,241.512939 378.925446,197.822693 393.765411,154.088547 
	C394.828552,150.955429 396.036835,149.670319 399.580994,149.731308 
	C413.884827,149.977402 428.195374,149.833328 442.845215,149.833328 
	C442.845215,213.164658 442.845215,276.228851 442.845215,339.647461 
	C431.487030,339.647461 419.925659,339.647461 407.722443,339.647461 
	C407.722443,337.943939 407.722473,336.187988 407.722473,334.432068 
	C407.722473,296.611389 407.722443,258.790741 407.722412,220.970062 
	C407.722412,219.970398 407.961456,218.892532 407.666260,217.989319 
	C407.218109,216.618179 406.398956,215.368317 405.737366,214.066925 
	C404.882660,215.086578 403.649902,215.971588 403.231384,217.146637 
	C398.772034,229.666687 394.440582,242.232330 390.076172,254.786179 
	C380.693420,281.774872 371.258942,308.745850 362.001587,335.777466 
	C360.928864,338.909821 359.673981,340.232513 356.125488,340.105316 
	C347.311188,339.789307 338.477966,340.001404 329.075684,340.001404 
	C317.008759,305.272980 304.924011,270.493225 292.693054,235.346390 
z"/>
<path fill="#FDFDFD" opacity="1.000000" stroke="none" 
	d="
M214.839996,301.000092 
	C214.831467,314.490997 214.824631,327.481842 214.804092,340.472687 
	C214.803619,340.779205 214.649399,341.085419 214.494293,341.661102 
	C213.991409,341.759033 213.380081,341.982697 212.769043,341.981934 
	C184.456879,341.946747 156.138992,342.211884 127.835022,341.703766 
	C113.795898,341.451721 100.494080,337.883728 90.056145,327.453888 
	C70.964394,308.376984 75.047775,274.479584 98.054321,260.385437 
	C99.579514,259.451050 100.679550,257.822693 101.977341,256.517120 
	C100.493256,255.670471 99.098076,254.568497 97.511543,254.015991 
	C77.832909,247.163132 66.223595,233.705688 64.616562,212.713959 
	C62.899929,190.290695 69.040161,171.115891 89.669289,159.067642 
	C99.794075,153.154388 111.135208,150.784348 122.674797,150.663605 
	C153.132141,150.344925 183.595032,150.555710 214.839996,150.555710 
	C214.839996,200.410416 214.839996,250.455231 214.839996,301.000092 
M155.499969,180.167679 
	C146.518646,180.384018 137.516190,180.284805 128.560501,180.884094 
	C111.313683,182.038239 102.753166,191.325027 102.509781,208.538528 
	C102.314026,222.383530 107.979935,231.585434 119.664719,235.252167 
	C123.860741,236.568893 128.462875,237.008362 132.892807,237.084641 
	C146.213898,237.313995 159.541504,237.177170 172.866501,237.151016 
	C174.121445,237.148560 175.375946,236.919205 176.585693,236.799637 
	C176.585693,217.835632 176.585693,199.249817 176.585693,180.167679 
	C169.734207,180.167679 163.117004,180.167679 155.499969,180.167679 
M132.945618,312.896881 
	C147.510284,312.896881 162.074951,312.896881 176.565903,312.896881 
	C176.565903,297.133301 176.565903,281.543335 176.565903,266.091888 
	C162.012787,266.091888 147.718536,265.747192 133.454239,266.250885 
	C127.198364,266.471802 121.611542,269.486511 117.943077,275.057373 
	C108.503922,289.391510 115.630150,308.325348 132.945618,312.896881 
z"/>
</svg>