<svg version="1.1" id="Layer_1" xmlns="http://www.w3.org/2000/svg" xmlns:xlink="http://www.w3.org/1999/xlink" x="0px" y="0px"
	 width="100%" viewBox="0 0 500 500" enable-background="new 0 0 500 500" xml:space="preserve">
<path fill="#FFFFFF" opacity="1.000000" stroke="none" 
	d="
M250.531342,1.000000 
	C251.000000,19.321892 251.000000,37.643784 251.000000,56.478203 
	C186.209915,56.478203 121.645271,56.478203 56.797565,56.478203 
	C56.797565,186.227280 56.797565,315.463318 56.797565,445.254547 
	C121.310852,445.254547 185.855942,445.254547 251.002518,445.254547 
	C251.002518,463.890198 251.002518,481.976440 251.001251,500.531342 
	C183.312439,501.000000 115.624878,501.000000 47.357834,500.634033 
	C25.705770,495.398956 11.076440,483.182953 3.787845,462.584686 
	C2.889388,460.045563 1.930746,457.527710 0.999998,455.000000 
	C1.000000,319.312439 1.000000,183.624878 1.366051,47.358002 
	C6.602279,25.711826 18.811943,11.073771 39.413216,3.809995 
	C42.252731,2.808814 45.136642,1.933556 48.000000,1.000000 
	C115.354225,1.000000 182.708450,1.000000 250.531342,1.000000 
z"/>
<path fill="#FFFFFF" opacity="1.000000" stroke="none" 
	d="
M500.999939,250.749969 
	C464.144562,288.073730 427.289215,325.147552 390.853455,361.799316 
	C377.015564,348.411682 363.883484,335.706909 350.815979,323.064636 
	C365.427734,308.472137 379.665741,294.252869 394.895355,279.043335 
	C318.485413,279.043335 243.386749,279.043335 168.059692,279.043335 
	C168.059692,260.136292 168.059692,241.894836 168.059692,223.226212 
	C243.297226,223.226212 318.339111,223.226212 394.328766,223.226212 
	C379.192047,208.433395 364.746185,194.315735 350.617004,180.507553 
	C364.414886,166.719757 377.342560,153.801559 390.890137,140.263916 
	C427.012512,176.515610 463.659882,213.294128 500.653625,250.036331 
	C501.000000,250.000000 501.000000,250.500000 500.999939,250.749969 
z"/>
</svg>