<svg version="1.1" id="Layer_1" xmlns="http://www.w3.org/2000/svg" xmlns:xlink="http://www.w3.org/1999/xlink" x="0px" y="0px"
	 width="100%" viewBox="0 0 500 500" enable-background="new 0 0 500 500" xml:space="preserve">
<path fill="#FFFFFF" opacity="1.000000" stroke="none" 
	d="
M269.000000,501.000000 
	C256.645782,501.000000 244.291550,501.000000 231.317596,500.603333 
	C197.563614,497.272766 165.897232,488.925781 136.591827,473.054138 
	C59.831848,431.481323 15.115985,367.422760 2.863977,280.860657 
	C2.395685,277.552124 1.628115,274.285919 1.000001,271.000000 
	C1.000000,257.979095 1.000000,244.958206 1.388561,231.302856 
	C4.103096,216.924332 5.580406,202.972214 8.890628,189.469452 
	C33.217945,90.235664 119.747269,14.369932 221.140045,2.858189 
	C224.783386,2.444539 228.381042,1.628502 232.000000,0.999999 
	C244.020889,1.000000 256.041779,1.000000 268.686340,1.399637 
	C302.892731,4.130714 334.889282,12.584330 364.529572,28.501854 
	C441.937744,70.071831 487.039551,134.424286 499.158325,221.644409 
	C499.640472,225.114578 500.380280,228.548950 501.000000,232.000000 
	C501.000000,244.687561 501.000000,257.375122 500.603333,270.682434 
	C499.631775,276.251495 499.193207,281.221069 498.461060,286.147064 
	C489.899109,343.754517 464.592651,392.768616 422.295258,432.766632 
	C384.510590,468.497284 339.695160,490.193054 288.270538,498.144592 
	C281.853271,499.136871 275.423798,500.050140 269.000000,501.000000 
M275.162811,124.500626 
	C275.116119,119.170685 275.320190,113.824394 274.973846,108.513992 
	C274.074219,94.720390 261.199127,84.543015 247.574081,86.636040 
	C234.982849,88.570267 226.872696,98.350464 226.854187,111.917953 
	C226.804443,148.405121 226.837189,184.892395 226.837173,221.379639 
	C226.837173,223.128387 226.837173,224.877121 226.837173,226.837173 
	C196.089859,226.837173 166.111343,226.827713 136.132828,226.842880 
	C126.971420,226.847519 117.792732,226.577911 108.652672,227.040573 
	C94.604515,227.751740 84.345436,240.978638 86.689804,254.765701 
	C88.823029,267.310974 98.521652,275.130432 112.277946,275.149292 
	C148.598511,275.199158 184.919174,275.166229 221.239807,275.166260 
	C223.002228,275.166260 224.764648,275.166260 226.837173,275.166260 
	C226.837173,277.641632 226.837173,279.450409 226.837173,281.259155 
	C226.837173,316.913361 226.834396,352.567535 226.844498,388.221741 
	C226.845062,390.218536 226.837326,392.226288 227.027573,394.210327 
	C228.296707,407.445801 240.993622,417.329224 254.141739,415.364532 
	C267.030487,413.438599 275.123291,403.725739 275.144257,389.835602 
	C275.199036,353.515076 275.162750,317.194366 275.162811,280.873749 
	C275.162811,279.100464 275.162811,277.327179 275.162811,275.166260 
	C277.548798,275.166260 279.347168,275.166260 281.145569,275.166260 
	C316.633148,275.166260 352.120728,275.169220 387.608307,275.158966 
	C389.772308,275.158356 391.947784,275.176331 394.098450,274.976227 
	C407.372192,273.741150 417.308228,261.085693 415.373627,247.948502 
	C413.463226,234.975494 403.791992,226.869003 389.945892,226.852142 
	C353.625336,226.807877 317.304657,226.837189 280.984039,226.837173 
	C279.200134,226.837173 277.416260,226.837173 275.162811,226.837173 
	C275.162811,192.718231 275.162811,159.109283 275.162811,124.500626 
z"/>
<path fill="#000000" opacity="1.000000" stroke="none" 
	d="
M275.162811,125.000488 
	C275.162811,159.109283 275.162811,192.718231 275.162811,226.837173 
	C277.416260,226.837173 279.200134,226.837173 280.984039,226.837173 
	C317.304657,226.837189 353.625336,226.807877 389.945892,226.852142 
	C403.791992,226.869003 413.463226,234.975494 415.373627,247.948502 
	C417.308228,261.085693 407.372192,273.741150 394.098450,274.976227 
	C391.947784,275.176331 389.772308,275.158356 387.608307,275.158966 
	C352.120728,275.169220 316.633148,275.166260 281.145569,275.166260 
	C279.347168,275.166260 277.548798,275.166260 275.162811,275.166260 
	C275.162811,277.327179 275.162811,279.100464 275.162811,280.873749 
	C275.162750,317.194366 275.199036,353.515076 275.144257,389.835602 
	C275.123291,403.725739 267.030487,413.438599 254.141739,415.364532 
	C240.993622,417.329224 228.296707,407.445801 227.027573,394.210327 
	C226.837326,392.226288 226.845062,390.218536 226.844498,388.221741 
	C226.834396,352.567535 226.837173,316.913361 226.837173,281.259155 
	C226.837173,279.450409 226.837173,277.641632 226.837173,275.166260 
	C224.764648,275.166260 223.002228,275.166260 221.239807,275.166260 
	C184.919174,275.166229 148.598511,275.199158 112.277946,275.149292 
	C98.521652,275.130432 88.823029,267.310974 86.689804,254.765701 
	C84.345436,240.978638 94.604515,227.751740 108.652672,227.040573 
	C117.792732,226.577911 126.971420,226.847519 136.132828,226.842880 
	C166.111343,226.827713 196.089859,226.837173 226.837173,226.837173 
	C226.837173,224.877121 226.837173,223.128387 226.837173,221.379639 
	C226.837189,184.892395 226.804443,148.405121 226.854187,111.917953 
	C226.872696,98.350464 234.982849,88.570267 247.574081,86.636040 
	C261.199127,84.543015 274.074219,94.720390 274.973846,108.513992 
	C275.320190,113.824394 275.116119,119.170685 275.162811,125.000488 
z"/>
</svg>