<svg version="1.1" id="Layer_1" xmlns="http://www.w3.org/2000/svg" xmlns:xlink="http://www.w3.org/1999/xlink" x="0px" y="0px"
	 width="100%" viewBox="0 0 496 496" enable-background="new 0 0 496 496" xml:space="preserve">
<path fill="#FFFFFF" opacity="1.000000" stroke="none" 
	d="
M1.000000,294.000000 
	C1.000000,292.285645 1.000000,290.571289 1.222010,288.181671 
	C20.210032,262.656616 38.920685,237.764603 57.806858,213.006454 
	C60.386124,209.625259 60.280476,207.163788 57.906937,203.746277 
	C42.517746,181.588409 27.293827,159.315414 12.077387,137.038071 
	C6.299128,128.578506 7.853298,123.093483 17.146082,118.826477 
	C73.131531,93.119423 129.124756,67.429321 185.123108,41.750389 
	C193.778564,37.781288 197.397232,38.766518 202.841537,46.667919 
	C216.353790,66.278465 229.802856,85.932541 243.303085,105.551392 
	C244.591370,107.423569 245.550949,109.644508 247.904434,110.636528 
	C249.999573,109.586266 250.950531,107.558060 252.226089,105.872498 
	C267.902405,85.157417 283.527802,64.403778 299.202911,43.687782 
	C305.207520,35.752232 308.479187,34.996731 317.511566,39.118149 
	C377.338837,66.416916 437.170074,93.707054 497.000000,121.000000 
	C497.000000,126.688042 497.000000,132.376083 496.732239,138.727402 
	C479.346558,161.930008 462.336243,184.552597 445.012970,206.932922 
	C441.844696,211.026062 442.182556,213.792557 444.983124,217.800262 
	C459.961395,239.234726 474.662964,260.862518 489.460480,282.423309 
	C496.096741,292.092682 494.653290,297.429840 483.996735,302.338501 
	C470.689758,308.468018 457.426697,314.700653 444.002563,320.563446 
	C439.665802,322.457489 438.173859,325.028503 438.265686,329.714233 
	C438.549683,344.202515 438.137207,358.705353 438.475403,373.191284 
	C438.637756,380.146729 435.926575,384.341766 429.671082,387.199829 
	C373.794189,412.729004 317.963013,438.358582 262.177979,464.087799 
	C256.914886,466.515259 252.216461,466.602814 246.930954,464.184204 
	C188.339691,437.372803 129.707565,410.650421 71.028633,384.031494 
	C65.067314,381.327209 62.512871,377.178284 62.600662,370.771637 
	C62.780979,357.612915 62.589989,344.448547 62.826256,331.291412 
	C62.896729,327.367035 61.466629,325.253510 57.932125,323.678558 
	C41.963306,316.562897 26.109011,309.190674 10.166506,302.015167 
	C6.240070,300.247925 2.900579,297.994751 1.000000,294.000000 
M190.153183,165.796005 
	C159.342499,179.942978 128.531815,194.089966 96.940628,208.595322 
	C98.648506,209.565308 99.443352,210.101212 100.303734,210.493256 
	C150.164490,233.214142 200.047699,255.885941 249.863251,278.705475 
	C253.746399,280.484253 256.920288,280.233643 260.684326,278.492004 
	C297.566345,261.426483 334.517548,244.510391 371.446320,227.545837 
	C382.437286,222.496750 393.419586,217.428802 404.394775,212.374588 
	C403.633820,210.436478 402.162140,210.293900 401.010956,209.767700 
	C351.029999,186.921539 301.027924,164.121475 251.073502,141.217575 
	C248.151108,139.877670 245.753723,140.220215 243.030487,141.479904 
	C225.651047,149.519135 208.232285,157.473328 190.153183,165.796005 
M267.384430,127.140770 
	C318.718658,150.546738 370.061554,173.933792 421.365479,197.405975 
	C424.419373,198.803177 426.451630,199.354828 428.906464,196.052124 
	C443.603973,176.278442 458.516693,156.664154 473.442444,137.061264 
	C475.884338,133.854187 475.085266,132.365311 471.588043,130.849075 
	C461.665558,126.547188 451.868835,121.954941 442.029144,117.462677 
	C400.398743,98.456619 358.760223,79.468208 317.164062,60.387482 
	C314.201935,59.028728 312.201263,58.764153 309.969727,61.763329 
	C295.163849,81.662552 280.210480,101.452194 265.262146,121.245056 
	C263.267456,123.886169 263.368408,125.729813 267.384430,127.140770 
M178.655823,267.971802 
	C146.083374,253.106216 113.484856,238.297165 80.973747,223.298615 
	C77.202065,221.558609 75.151703,222.161957 72.703773,225.461472 
	C58.510799,244.591965 44.085571,263.550049 29.785257,282.601257 
	C28.723442,284.015808 27.185011,285.257019 27.215792,287.353485 
	C28.326450,289.236176 30.419188,289.660156 32.176052,290.462738 
	C82.921448,313.644806 133.705383,336.742645 184.418747,359.994446 
	C188.305710,361.776550 190.530640,361.355774 193.141754,357.827179 
	C207.411072,338.543823 221.932709,319.447235 236.350739,300.273773 
	C237.326691,298.975952 238.595566,297.786774 238.542450,295.234314 
	C218.968506,286.321014 199.157028,277.299591 178.655823,267.971802 
M317.348907,273.973297 
	C303.119446,280.499176 288.940247,287.138550 274.628662,293.479095 
	C270.533813,295.293335 270.377930,297.101227 272.768616,300.549438 
	C285.205475,318.487640 297.562500,336.483032 309.738068,354.599152 
	C312.199982,358.262268 314.389465,358.698547 318.340363,356.874756 
	C366.586884,334.603119 414.913788,312.505646 463.209076,290.339569 
	C469.107605,287.632355 469.151520,287.484253 465.532166,282.181305 
	C453.602722,264.702881 441.488770,247.348022 429.763977,229.733810 
	C426.892792,225.420395 424.507629,224.592667 419.692657,226.838287 
	C385.882660,242.606827 351.932922,258.075775 317.348907,273.973297 
M155.292099,76.918762 
	C114.823074,95.514282 74.354042,114.109802 33.705956,132.787613 
	C34.323910,134.242966 34.524021,135.059418 34.967899,135.709412 
	C48.116062,154.962952 61.319454,174.178879 74.419746,193.464859 
	C76.162575,196.030624 77.913643,195.784225 80.332520,194.671478 
	C129.339584,172.126770 178.355713,149.601578 227.421432,127.184998 
	C231.332108,125.398338 231.942245,123.588837 229.496994,120.051201 
	C216.903503,101.831543 204.389801,83.555939 191.986526,65.206390 
	C190.019882,62.296890 188.217361,61.690144 185.004852,63.228226 
	C175.397430,67.828094 165.657288,72.150734 155.292099,76.918762 
M264.363251,332.671539 
	C264.363251,368.563141 264.363251,404.454742 264.363251,440.884552 
	C266.107452,440.384888 266.909790,440.261749 267.619507,439.936493 
	C316.679962,417.453033 365.727509,394.941528 414.800903,372.486389 
	C417.575134,371.216949 418.823639,369.443573 418.784363,366.333893 
	C418.660217,356.503784 418.752991,346.671082 418.722046,336.839508 
	C418.718048,335.569305 419.026428,334.090973 417.384277,333.359711 
	C415.638672,333.252655 414.267975,334.324738 412.779419,335.006622 
	C380.832855,349.639587 348.893494,364.288208 316.954834,378.938446 
	C308.198853,382.954834 304.902161,382.038910 299.379364,373.975250 
	C293.448547,365.315918 287.551392,356.633545 281.611572,347.980408 
	C276.272766,340.202789 270.896057,332.451141 265.536072,324.688049 
	C265.146027,324.789001 264.755981,324.889984 264.365936,324.990967 
	C264.365936,327.242676 264.365936,329.494415 264.363251,332.671539 
M154.750000,400.644562 
	C184.359329,414.114471 213.968674,427.584381 244.494720,441.471344 
	C244.494720,401.442047 244.494720,362.648499 244.494720,323.704529 
	C242.249680,324.190247 241.762573,325.779846 240.898102,326.922455 
	C228.236908,343.657043 215.626099,360.429749 202.971481,377.169342 
	C196.996414,385.073151 194.203751,385.826111 185.137115,381.718048 
	C152.986069,367.150635 120.865479,352.515961 88.718033,337.940582 
	C86.976418,337.150970 85.336456,335.667572 82.355461,336.824677 
	C82.355461,344.651123 82.688515,352.766418 82.236015,360.837677 
	C81.944145,366.043732 83.967857,368.549957 88.569565,370.593353 
	C110.481567,380.323425 132.250534,390.375610 154.750000,400.644562 
z"/>
</svg>