<svg version="1.1" id="Layer_1" xmlns="http://www.w3.org/2000/svg" xmlns:xlink="http://www.w3.org/1999/xlink" x="0px" y="0px"
	 width="100%" viewBox="0 0 500 500" enable-background="new 0 0 500 500" xml:space="preserve">
<path fill="#FFFFFF" opacity="1.000000" stroke="none" 
	d="
M232.000000,1.000001 
	C244.020889,1.000000 256.041779,1.000000 268.690002,1.401788 
	C280.179443,3.257497 291.173340,4.068830 301.883301,6.264946 
	C406.633575,27.744385 486.792908,115.405388 499.168884,221.642441 
	C499.573853,225.118896 500.380524,228.548538 501.000000,232.000000 
	C501.000000,244.687561 501.000000,257.375122 500.603577,270.682861 
	C498.977509,280.184448 498.161224,289.146332 496.450378,297.934052 
	C486.231934,350.422241 461.741272,395.237000 423.008789,432.069550 
	C385.064453,468.152618 340.040253,490.107544 288.270294,498.145203 
	C281.853760,499.141418 275.423767,500.050507 269.000000,501.000000 
	C256.645782,501.000000 244.291550,501.000000 231.317139,500.603577 
	C198.073441,497.338348 166.815033,489.239716 137.917633,473.754089 
	C60.503338,432.269012 15.199039,368.050354 2.876137,280.858917 
	C2.408530,277.550323 1.632374,274.285309 1.000000,271.000000 
	C1.000000,257.979095 1.000000,244.958206 1.388294,231.302399 
	C3.735856,208.206802 7.841113,186.090591 16.267977,165.196793 
	C53.803547,72.130150 122.091171,17.632648 221.639526,2.831789 
	C225.107147,2.316225 228.547134,1.614798 232.000000,1.000001 
M63.754593,359.736115 
	C71.921982,373.667206 81.374451,386.627716 92.619987,398.445740 
	C129.766495,340.638275 182.083038,308.624847 250.771637,308.559967 
	C319.657166,308.494904 372.169769,340.485077 409.180664,398.182617 
	C409.481079,398.069611 409.660461,398.052490 409.763519,397.954834 
	C410.244690,397.499023 410.731354,397.044434 411.168579,396.547607 
	C458.763184,342.459503 477.028046,279.662384 463.346497,209.067902 
	C443.219055,105.213676 351.519196,32.080791 246.300842,34.591045 
	C183.845352,36.081078 131.428085,60.560661 89.643417,106.809151 
	C52.764561,147.627777 34.642815,196.245728 34.322701,251.107147 
	C34.098171,289.586914 44.098717,325.695068 63.754593,359.736115 
z"/>
<path fill="#FFFFFF" opacity="1.000000" stroke="none" 
	d="
M183.538513,100.528610 
	C243.420578,49.499355 333.228302,78.981216 350.567108,155.035156 
	C363.278870,210.793213 325.136200,267.713806 268.781067,277.085114 
	C211.748169,286.569061 158.577682,248.852036 150.303192,192.121948 
	C145.058777,156.166199 156.594543,125.556602 183.538513,100.528610 
z"/>
</svg>