<svg version="1.1" id="Layer_1" xmlns="http://www.w3.org/2000/svg" xmlns:xlink="http://www.w3.org/1999/xlink" x="0px" y="0px"
	 width="100%" viewBox="0 0 500 500" enable-background="new 0 0 500 500" xml:space="preserve">
<path fill="#FFFFFF" opacity="1.000000" stroke="none" 
	d="
M224.000000,1.000000 
	C241.354233,1.000000 258.708466,1.000000 276.755798,1.265784 
	C286.054016,4.879540 289.978485,10.591969 289.998505,19.822250 
	C290.010406,25.316505 289.796509,30.820538 290.052032,36.303024 
	C290.562347,47.251400 295.806549,55.336922 305.879059,59.701153 
	C319.575928,65.635757 333.349731,71.426819 347.295715,76.741074 
	C357.270630,80.542099 366.612885,78.748787 374.457489,71.124512 
	C378.397064,67.295616 382.151123,63.273346 386.141235,59.499405 
	C394.696442,51.407711 404.785706,51.502556 413.130005,59.757488 
	C422.717072,69.241928 432.262543,78.769661 441.733551,88.369873 
	C449.978638,96.727463 449.982391,106.777855 441.803711,115.320473 
	C437.889893,119.408493 433.691620,123.227684 429.841248,127.372169 
	C422.581116,135.186813 420.906097,144.371582 424.715149,154.167145 
	C430.064941,167.925003 435.798523,181.538406 441.602356,195.113388 
	C446.088257,205.605759 454.156433,211.102814 465.705688,211.162628 
	C470.866852,211.189362 476.028748,211.125656 481.189514,211.178131 
	C487.684296,211.244171 493.326874,213.307755 497.161346,218.816360 
	C498.701782,221.029327 499.735596,223.594925 501.000000,226.000000 
	C501.000000,226.444443 501.000000,226.888901 500.654297,227.915359 
	C500.223877,242.783554 500.128571,257.069702 500.094757,271.355988 
	C500.093475,271.903290 500.684814,272.451965 501.000000,273.000000 
	C501.000000,273.750000 501.000000,274.500000 500.659302,275.730164 
	C496.120026,286.687500 491.202484,289.998840 479.839020,290.000031 
	C475.340973,290.000488 470.841675,289.931854 466.345123,290.013428 
	C454.285095,290.232147 445.837891,295.896820 441.195435,307.044983 
	C435.774689,320.062073 430.382263,333.091705 425.094299,346.163147 
	C420.809875,356.753967 422.552979,366.371826 430.378754,374.726807 
	C434.135010,378.737091 438.160370,382.493866 442.006775,386.421387 
	C449.545654,394.119171 450.123383,404.135742 442.798248,411.820160 
	C432.688416,422.425842 422.311096,432.795227 411.689697,442.888336 
	C404.150604,450.052399 394.201355,449.531464 386.654663,442.237274 
	C382.702332,438.417175 378.944000,434.395233 374.965576,430.603424 
	C366.516602,422.550690 356.771179,420.779266 345.997742,425.146820 
	C334.006012,430.008301 322.090057,435.056396 310.115906,439.961731 
	C294.818390,446.228516 290.000244,453.383514 290.000092,470.026306 
	C290.000061,472.192047 290.000061,474.357758 290.000061,476.523499 
	C290.000061,492.424408 288.053802,495.401794 274.000000,501.000000 
	C273.555542,501.000000 273.111115,501.000000 272.064087,500.675232 
	C257.506104,500.239807 243.550781,500.118164 229.595184,500.060394 
	C229.064758,500.058197 228.531784,500.672821 228.000000,501.000000 
	C227.250000,501.000000 226.500000,501.000000 225.292694,500.654663 
	C214.883255,496.687042 210.753036,489.363434 211.135544,479.038300 
	C211.301895,474.548096 211.185028,470.046478 211.159134,465.550262 
	C211.095322,454.470825 205.258392,445.755890 194.997238,441.504791 
	C181.507812,435.916321 168.056503,430.229248 154.479706,424.860443 
	C144.469345,420.902008 135.208664,422.565277 127.253876,429.957733 
	C123.109055,433.809631 119.300926,438.021881 115.198242,441.921478 
	C106.670166,450.027344 96.644722,449.922363 88.248138,441.622345 
	C78.773590,432.256622 69.368675,422.819946 59.984333,413.363647 
	C51.454399,404.768372 51.313637,394.785126 59.634899,386.002991 
	C63.413353,382.015289 67.448364,378.271667 71.262688,374.316742 
	C78.866318,366.432800 80.501373,357.068970 76.688469,347.118713 
	C71.409088,333.341492 65.615005,319.756378 59.819317,306.183807 
	C55.409790,295.857391 47.280212,290.561707 36.126884,290.039154 
	C31.474163,289.821167 26.782995,289.724792 22.143929,290.056793 
	C11.855192,290.793182 4.982955,286.315308 1.000000,277.000000 
	C1.000000,259.645782 1.000000,242.291550 1.292753,224.283585 
	C4.867858,215.151611 11.312967,211.340729 20.144123,211.184189 
	C25.303434,211.092743 30.465769,211.185928 35.626602,211.163269 
	C46.970341,211.113464 55.599037,205.334167 59.997238,194.736526 
	C65.401550,181.714600 70.721054,168.657501 76.097473,155.623962 
	C80.673103,144.531708 78.749985,134.513489 70.311890,125.929451 
	C66.694168,122.249138 62.977600,118.665695 59.374344,114.971519 
	C52.024734,107.436432 51.211823,97.498421 58.304554,89.926575 
	C68.538666,79.001137 79.152657,68.396416 90.101349,58.187660 
	C97.549698,51.242672 107.379295,52.033833 114.744110,59.154675 
	C119.290024,63.549988 123.542946,68.277679 128.328995,72.388603 
	C136.055069,79.024826 145.040741,80.321655 154.431458,76.618088 
	C168.162643,71.202698 181.834549,65.615875 195.365036,59.719666 
	C205.353256,55.367092 210.910507,47.572617 211.148453,36.427956 
	C211.240814,32.101402 211.395996,27.756216 211.117432,23.445700 
	C210.445114,13.042237 214.385529,5.429098 224.000000,1.000000 
M309.842010,166.624634 
	C286.564209,150.500198 260.773621,144.417450 233.040909,149.486984 
	C177.687393,159.605698 142.187393,208.575378 148.886276,264.476318 
	C156.078491,324.494171 217.218109,366.161560 275.770355,350.264923 
	C317.065338,339.053528 343.357727,311.920776 351.376007,269.988434 
	C359.438324,227.825867 344.600708,193.193054 309.842010,166.624634 
z"/>
<path fill="#FFFFFF" opacity="1.000000" stroke="none" 
	d="
M501.000000,272.531342 
	C500.684814,272.451965 500.093475,271.903290 500.094757,271.355988 
	C500.128571,257.069702 500.223877,242.783554 500.654297,228.248688 
	C501.000000,242.687561 501.000000,257.375122 501.000000,272.531342 
z"/>
<path fill="#FFFFFF" opacity="1.000000" stroke="none" 
	d="
M228.468658,501.000000 
	C228.531784,500.672821 229.064758,500.058197 229.595184,500.060394 
	C243.550781,500.118164 257.506104,500.239807 271.730743,500.675232 
	C257.645782,501.000000 243.291550,501.000000 228.468658,501.000000 
z"/>
</svg>