<svg version="1.1" id="Layer_1" xmlns="http://www.w3.org/2000/svg" xmlns:xlink="http://www.w3.org/1999/xlink" x="0px" y="0px"
	 width="100%" viewBox="0 0 500 500" enable-background="new 0 0 500 500" xml:space="preserve">
<path fill="#FFDC26" opacity="1.000000" stroke="none" 
	d="
M90.484756,369.550812 
	C84.177422,359.576324 77.870094,349.601837 71.324203,339.250061 
	C60.892307,342.791321 50.559273,341.947815 41.383091,335.019684 
	C37.437168,332.040436 33.438053,328.631256 30.766460,324.561737 
	C23.753466,313.879150 17.435892,302.738770 10.907869,291.741241 
	C10.278335,290.680664 10.113997,289.343903 9.547845,287.544769 
	C25.907787,286.008179 40.740845,288.154663 54.720978,299.680450 
	C52.733219,291.806458 51.166664,285.596252 49.595661,279.387115 
	C49.473217,278.903198 49.228916,278.433685 49.193962,277.946503 
	C48.537914,268.803467 46.086678,262.469360 34.632252,261.892548 
	C26.268715,261.471436 20.112194,254.676666 15.944353,247.362549 
	C7.123072,231.882126 3.725947,214.792068 2.015840,197.283722 
	C1.955255,196.663437 2.211385,196.012222 2.412207,194.833740 
	C19.480726,199.355225 34.599762,206.025085 42.379044,223.812927 
	C43.501423,210.063858 44.562561,197.065002 45.662193,183.594604 
	C35.031666,181.136612 26.539991,175.009598 23.102261,164.279327 
	C20.761168,156.972015 19.313732,148.937897 19.635130,141.320236 
	C20.130125,129.588058 22.464020,117.931473 24.084274,106.252045 
	C24.235445,105.162354 24.862684,104.138702 25.470722,102.560501 
	C42.408108,113.445137 54.406181,126.872810 53.991772,148.614365 
	C58.534843,137.943237 62.839653,127.916878 67.028412,117.842278 
	C67.390198,116.972122 67.393730,115.464897 66.870842,114.791916 
	C62.509819,109.179108 63.542458,103.101570 65.494514,97.170563 
	C69.303345,85.598091 75.586235,75.486572 84.449280,67.039482 
	C95.799225,56.222202 108.990639,48.310123 123.419510,41.989872 
	C123.641663,42.690975 124.032265,43.254498 123.885262,43.555325 
	C114.618225,62.520016 105.569672,81.599823 95.826401,100.317886 
	C93.208771,105.346664 88.634888,109.432053 84.614250,113.619453 
	C82.964691,115.337433 80.494934,116.993011 78.236221,117.249420 
	C73.589760,117.776886 71.974533,120.508156 70.736557,124.399986 
	C68.492889,131.453461 65.922592,138.403015 64.030197,145.828079 
	C71.215981,139.846832 79.006950,135.835281 88.174965,136.212677 
	C95.539238,136.515869 102.860260,137.869354 109.752495,138.702606 
	C110.098717,140.335999 110.327156,140.766434 110.204193,140.925888 
	C101.280930,152.497253 92.754074,164.413025 83.224327,175.463730 
	C77.353966,182.271011 68.698799,184.608627 59.721024,184.885910 
	C57.459961,184.955750 55.280197,184.786377 55.122635,187.963104 
	C54.590565,198.690948 54.014679,209.416626 54.039268,220.364197 
	C58.717934,213.718185 64.442169,208.695816 72.015038,206.637131 
	C79.295181,204.658020 86.822395,203.587769 95.560867,201.856720 
	C90.574432,219.067871 86.975006,234.818848 77.672462,248.315887 
	C75.475883,251.502930 72.115417,254.068054 68.863724,256.296875 
	C65.620041,258.520203 61.840820,259.962250 57.651646,262.071411 
	C60.380547,272.850830 63.140430,283.752625 65.900314,294.654419 
	C71.895790,278.828644 84.462830,271.593750 99.423477,266.526489 
	C99.870682,267.863220 100.539116,268.904083 100.512154,269.926575 
	C100.192192,282.058105 100.091698,294.208710 99.274605,306.309784 
	C98.560501,316.885559 92.966347,325.058807 84.755302,331.529663 
	C84.125664,332.025818 83.545540,332.584778 82.149635,333.810883 
	C88.177238,343.222748 94.161209,352.566498 100.508682,362.307373 
	C101.125061,362.885803 101.377937,363.067047 101.630814,363.248322 
	C101.526237,362.738220 101.421661,362.228149 101.317078,361.718048 
	C101.303535,344.895538 111.397339,334.390961 124.225800,324.630066 
	C129.249008,339.391022 134.836472,353.245667 136.133102,368.307037 
	C136.975677,378.094299 133.674500,386.627106 127.327911,395.100189 
	C136.483536,403.016724 145.556580,410.861847 154.629623,418.707001 
	C155.081299,418.422272 155.532974,418.137543 155.984650,417.852814 
	C152.526337,410.273621 151.622879,402.360657 154.258057,394.717102 
	C156.762329,387.453217 160.466110,380.602844 164.477493,373.635132 
	C176.030396,388.411530 189.345444,401.508514 193.212189,420.134705 
	C194.420181,425.953583 193.400406,432.234924 193.400406,438.977722 
	C202.535767,442.239655 213.347687,445.211792 223.341263,449.920685 
	C233.162903,454.548584 242.153671,460.939789 252.304947,467.035126 
	C267.334930,451.636688 288.647034,445.394012 310.103455,438.998535 
	C309.484039,434.575409 308.660919,430.532196 308.401337,426.453125 
	C307.895844,418.510132 310.465668,411.280670 314.777313,404.783447 
	C321.748993,394.277802 329.028931,383.976654 336.238708,373.501953 
	C347.366760,383.275604 350.846436,399.768341 345.977570,420.013153 
	C356.151611,411.275970 365.397949,403.335510 374.825836,395.239105 
	C368.876190,386.767151 365.046783,378.377533 365.988556,368.573853 
	C367.432373,353.543518 372.617737,339.563446 378.051514,324.669098 
	C390.976807,334.688904 401.203369,345.238739 402.056641,362.870758 
	C407.638824,353.542175 413.279419,344.247009 418.679413,334.814178 
	C419.062958,334.144165 418.004791,332.038666 417.066254,331.315582 
	C406.760101,323.375641 402.436981,312.539032 402.082794,299.984222 
	C401.774323,289.049622 402.018555,278.099426 402.018555,266.328400 
	C417.606323,271.529938 430.505707,278.712372 435.726410,296.912018 
	C438.659393,285.196625 441.338318,274.977783 443.634705,264.673676 
	C443.902008,263.474335 442.376312,260.961029 441.133240,260.482697 
	C430.182495,256.268829 422.626434,248.710114 418.556610,237.846512 
	C414.370758,226.673126 410.600433,215.344040 406.622375,204.009293 
	C420.691589,200.605789 438.552002,207.916962 447.822601,220.741043 
	C448.047668,219.281738 448.369080,218.282990 448.327484,217.299576 
	C447.919800,207.657501 447.395447,198.020065 447.038910,188.376328 
	C446.946045,185.865173 446.070496,184.864594 443.466919,184.869644 
	C431.951691,184.892044 422.295197,180.495758 415.016022,171.629120 
	C406.807098,161.629944 398.997101,151.303284 390.316925,140.230347 
	C407.906952,134.720215 423.484009,132.954727 438.118713,146.597153 
	C437.815247,144.375397 437.824738,143.155151 437.467896,142.053635 
	C435.828949,136.994476 434.027344,131.987869 432.400085,126.925110 
	C430.803772,121.958603 428.911224,118.205276 422.764404,116.631508 
	C418.591919,115.563232 414.849823,111.271957 411.789093,107.677887 
	C400.304504,94.192162 393.609100,77.930603 386.302002,62.061028 
	C383.388306,55.733086 380.747955,49.279266 377.568970,41.924385 
	C379.669342,42.594070 381.022736,42.857681 382.225616,43.434902 
	C395.207001,49.664066 407.443024,57.047386 417.846893,67.133171 
	C426.985931,75.992798 433.561523,86.483749 437.123077,98.743652 
	C438.695190,104.155273 439.089905,109.535408 435.568848,114.552559 
	C435.014618,115.342270 434.784149,116.847626 435.143738,117.715553 
	C439.255066,127.638054 443.509888,137.501099 448.133423,148.333633 
	C448.122223,126.638565 459.973297,113.389786 477.404663,102.075928 
	C478.790436,109.900993 480.483459,116.796173 481.131348,123.788193 
	C481.956390,132.691864 482.589752,141.707016 482.138824,150.615036 
	C481.289520,167.392929 473.419891,179.319305 456.518494,183.651978 
	C457.551971,196.272781 458.567139,208.669769 459.641449,221.789032 
	C460.852478,220.321304 462.114532,219.059280 463.066895,217.595749 
	C471.557770,204.547485 484.484467,198.643112 498.958649,195.229599 
	C499.342468,195.139084 499.852081,195.581757 500.651489,195.887878 
	C501.000000,196.750000 501.000000,197.500000 501.000000,198.625000 
	C499.356628,206.524643 498.085297,214.155960 495.966888,221.544388 
	C493.780701,229.169281 491.290680,236.795441 488.002838,243.996078 
	C482.627289,255.768936 473.243042,262.708801 460.095184,263.494110 
	C456.401794,263.714752 455.559174,265.194977 454.861237,268.396393 
	C452.707184,278.276581 450.133392,288.065277 447.505554,298.459961 
	C447.324890,299.280212 447.361298,299.530029 447.397705,299.779816 
	C447.672363,299.595428 447.947021,299.411072 448.221680,299.226715 
	C460.935883,288.180542 475.933380,286.016388 492.446228,287.527435 
	C492.174683,288.971100 492.182770,289.987823 491.796783,290.822327 
	C485.341339,304.779480 477.961731,318.164032 467.271698,329.426331 
	C457.198242,340.039062 445.290070,344.049042 430.882416,339.174072 
	C424.301575,349.654175 417.740021,360.103577 411.119232,370.647308 
	C430.918854,365.435638 447.339844,366.528076 457.666473,374.144806 
	C453.214264,378.690826 449.141571,383.533722 444.375610,387.554962 
	C437.269409,393.550690 430.043579,399.554077 422.198700,404.489258 
	C411.030426,411.515167 397.999237,414.215271 382.200073,403.218323 
	C377.364471,407.344818 372.532867,411.651642 367.500854,415.709991 
	C362.511414,419.734009 357.320038,423.507660 352.277649,427.816895 
	C370.492340,425.085175 384.579742,432.855103 397.755035,444.283997 
	C396.747650,445.188354 396.221191,445.858002 395.535553,446.247437 
	C380.553192,454.757416 365.175781,462.317444 347.749420,464.250580 
	C334.190247,465.754730 323.257629,461.267853 315.679749,449.472565 
	C314.888885,448.241577 312.794983,446.712952 311.707672,446.977112 
	C294.896820,451.061615 277.819336,454.496063 262.931122,464.057007 
	C259.868774,466.023590 256.973053,468.249634 254.074448,470.303711 
	C257.819580,476.640900 261.369965,482.648590 264.920349,488.656281 
	C264.568939,488.854492 264.217529,489.052673 263.866119,489.250885 
	C259.873779,483.956451 255.881454,478.662018 251.387177,472.701935 
	C247.551758,477.070953 244.359970,480.706757 241.168182,484.342590 
	C240.705978,484.004974 240.243774,483.667358 239.781570,483.329742 
	C242.524567,479.272949 245.267548,475.216187 248.838348,469.935089 
	C241.223083,465.656311 234.142105,460.524963 226.251419,457.519318 
	C214.942657,453.211761 203.066177,450.370758 191.361679,447.160278 
	C190.096207,446.813141 187.631317,447.710938 186.961426,448.795959 
	C178.730270,462.127777 166.530090,466.320374 151.767334,463.990967 
	C134.739548,461.304230 119.538994,453.874146 103.866234,444.687836 
	C117.540810,433.119934 131.377731,424.948395 150.833069,428.532135 
	C139.812454,419.585968 129.875366,411.519348 119.631027,403.203308 
	C103.843994,415.455292 88.511909,411.101074 73.627129,400.606232 
	C62.856670,393.012360 53.184013,384.205017 44.237606,373.303955 
	C59.286491,366.976135 73.741096,363.691925 89.534546,370.447754 
	C90.348518,370.673523 90.611359,370.646057 90.874199,370.618591 
	C90.744385,370.262665 90.614571,369.906738 90.484756,369.550812 
M54.776844,299.451752 
	C54.560074,299.430206 54.343307,299.408691 54.126534,299.387146 
	C54.223270,299.515869 54.320011,299.644623 54.776844,299.451752 
z"/>
<path fill="#FFDB25" opacity="1.000000" stroke="none" 
	d="
M154.046936,292.027649 
	C147.416840,268.612854 140.882858,245.598907 134.384628,222.710922 
	C122.593842,221.929855 116.767006,217.767395 115.224556,209.272552 
	C113.891151,201.929016 117.833199,194.611130 124.645470,191.783844 
	C131.299850,189.022110 139.173721,191.120636 143.465332,196.799637 
	C148.967712,204.080826 147.954315,210.587112 139.438721,220.753860 
	C142.015900,223.207993 144.446976,225.925217 147.271667,228.140518 
	C157.443314,236.117752 171.324036,230.551605 172.732483,217.690125 
	C173.814407,207.810410 173.985916,197.830978 174.557632,187.976028 
	C163.016953,183.737503 158.244400,178.058014 159.158981,169.861938 
	C159.998138,162.341507 165.422180,156.625275 172.897568,155.383255 
	C179.461517,154.292679 186.720581,158.327942 189.622696,164.680649 
	C193.100845,172.294296 190.786652,179.066498 181.866516,186.224533 
	C186.200104,192.398575 190.000565,199.133423 195.053040,204.739975 
	C205.998016,216.885162 225.854813,214.683899 233.013870,200.042908 
	C239.188797,187.414551 243.486862,173.868469 248.851562,160.121094 
	C240.123825,158.129440 232.995193,154.213196 230.417068,145.948242 
	C228.954361,141.259094 228.643890,135.624420 229.726318,130.848923 
	C232.011658,120.766243 242.075150,114.294586 252.365082,115.020706 
	C262.113647,115.708618 271.213074,123.863678 272.852570,133.381973 
	C274.979828,145.732086 269.027191,153.894287 252.458847,160.553864 
	C257.912170,174.216782 262.387177,188.399170 269.094696,201.432617 
	C276.404968,215.637299 297.716064,216.184311 307.676178,203.278244 
	C311.828918,197.897263 315.322632,192.007706 318.324158,187.530579 
	C315.548462,182.123627 312.399017,177.795334 311.186707,172.979401 
	C310.404205,169.871109 311.766144,165.678192 313.391602,162.622818 
	C316.690979,156.421097 324.378723,153.899170 331.123901,155.963440 
	C337.832764,158.016586 342.730804,164.549438 342.621490,171.298553 
	C342.488373,179.512894 337.507843,184.812027 326.530304,187.825729 
	C327.293121,198.234909 327.444824,208.899567 329.009186,219.352798 
	C330.741302,230.927185 343.993134,235.735184 353.341675,228.645477 
	C356.476227,226.268326 359.114868,223.237259 361.960938,220.523392 
	C354.016876,211.527328 352.892822,204.307617 358.061127,197.003418 
	C362.273010,191.050888 370.306335,188.906036 377.231171,191.885147 
	C384.216003,194.890076 387.687927,201.914062 386.177979,209.985367 
	C384.668396,218.054764 378.685608,221.999954 366.967041,222.446304 
	C360.217041,246.143036 353.438019,269.941528 346.530579,294.190979 
	C339.293579,293.004578 332.317017,291.750153 325.306396,290.730286 
	C290.579285,285.678223 255.642700,284.425964 220.692352,286.769379 
	C199.824036,288.168610 179.083710,291.454285 158.271179,293.759644 
	C156.960373,293.904846 155.522049,292.898926 154.046936,292.027649 
z"/>
<path fill="#FFDC26" opacity="1.000000" stroke="none" 
	d="
M327.270721,314.738281 
	C308.258362,313.333954 289.698792,310.946045 271.130219,310.873962 
	C243.063446,310.765045 214.983688,312.097443 186.924042,313.191620 
	C178.166183,313.533112 169.455490,315.083954 160.838409,316.068024 
	C159.881531,311.170776 158.987610,306.595703 158.043060,301.761566 
	C173.269241,292.790649 321.350067,292.411652 342.686798,301.536682 
	C341.838959,306.199066 341.004181,310.789429 340.065643,315.950531 
	C336.197418,315.587372 331.958435,315.189453 327.270721,314.738281 
z"/>
<path fill="#FFDC29" opacity="1.000000" stroke="none" 
	d="
M252.000000,316.986420 
	C281.923248,317.032623 311.348389,317.041901 340.577301,320.825043 
	C340.646698,321.384888 340.716125,321.944733 340.785553,322.504578 
	C338.378052,323.005432 335.982025,323.876251 333.561279,323.951508 
	C299.289734,325.016815 265.018311,326.537384 230.739410,326.750793 
	C209.471542,326.883179 188.189545,325.024109 166.918396,323.968567 
	C164.486572,323.847870 162.083710,323.143677 159.667404,322.710052 
	C159.620987,322.174103 159.574570,321.638184 159.528152,321.102264 
	C164.391983,320.433807 169.241409,319.331818 174.122086,319.169434 
	C199.910385,318.311371 225.706558,317.689941 252.000000,316.986420 
z"/>
<path fill="#FFFFFE" opacity="1.000000" stroke="none" 
	d="
M101.173996,361.845642 
	C101.421661,362.228149 101.526237,362.738220 101.630814,363.248322 
	C101.377937,363.067047 101.125061,362.885803 100.807877,362.465790 
	C100.743561,362.227051 101.030907,361.973206 101.173996,361.845642 
z"/>
<path fill="#FFFFFE" opacity="1.000000" stroke="none" 
	d="
M54.596794,299.612549 
	C54.320011,299.644623 54.223270,299.515869 54.126534,299.387146 
	C54.343307,299.408691 54.560074,299.430206 54.596794,299.612549 
z"/>
<path fill="#FFFFFE" opacity="1.000000" stroke="none" 
	d="
M448.080200,299.084656 
	C447.947021,299.411072 447.672363,299.595428 447.397705,299.779816 
	C447.361298,299.530029 447.324890,299.280212 447.471252,298.845276 
	C447.654022,298.660156 447.938690,298.942596 448.080200,299.084656 
z"/>
<path fill="#FFFFFE" opacity="1.000000" stroke="none" 
	d="
M90.292130,369.729736 
	C90.614571,369.906738 90.744385,370.262665 90.874199,370.618591 
	C90.611359,370.646057 90.348518,370.673523 89.907562,370.491608 
	C89.852798,370.157684 89.976151,370.033173 90.292130,369.729736 
z"/>
</svg>