<svg version="1.1" id="Layer_1" xmlns="http://www.w3.org/2000/svg" xmlns:xlink="http://www.w3.org/1999/xlink" x="0px" y="0px"
	 width="100%" viewBox="0 0 500 500" enable-background="new 0 0 500 500" xml:space="preserve">
<path fill="#FFFFFF" opacity="1.000000" stroke="none" 
	d="
M277.531342,1.000001 
	C278.946106,2.246658 279.767517,3.616068 280.856354,4.722217 
	C319.201233,43.676048 357.489258,82.686722 396.037354,121.438637 
	C401.084015,126.511993 401.714783,132.095200 400.962250,138.313995 
	C400.803497,139.625961 398.710632,141.709091 397.596527,141.654327 
	C396.090729,141.580322 394.520691,139.928101 393.283051,138.656372 
	C392.763855,138.122849 393.025543,136.829376 392.898285,135.536545 
	C390.827332,135.536545 389.024597,135.536545 387.221863,135.536545 
	C350.891815,135.536514 314.561798,135.540207 278.231750,135.534683 
	C262.591095,135.532288 253.300186,126.359055 253.277954,110.792274 
	C253.235596,81.128448 253.107666,51.463200 253.385849,21.802021 
	C253.430618,17.027945 255.391663,12.271841 256.540222,7.182412 
	C256.063751,7.157770 254.683212,7.024161 253.302643,7.023924 
	C192.808121,7.013557 132.313583,6.995528 71.819077,7.023343 
	C42.412865,7.036863 22.200066,27.208967 22.195879,56.560547 
	C22.177406,186.048828 22.177120,315.537109 22.195484,445.025391 
	C22.199751,475.117950 41.879826,494.805298 71.892532,494.808685 
	C162.550995,494.818970 253.209473,494.835541 343.867920,494.796387 
	C368.797974,494.785645 387.911896,479.450134 392.436584,455.851959 
	C393.120239,452.286621 393.157745,448.561584 393.170227,444.909332 
	C393.237488,425.244690 393.192413,405.579681 393.221130,385.914825 
	C393.223541,384.268799 393.024841,382.363251 393.763824,381.055237 
	C394.418396,379.896667 396.299530,378.718597 397.547241,378.809601 
	C398.775391,378.899200 400.093414,380.421600 400.970917,381.611176 
	C401.464142,382.279785 401.187012,383.546967 401.187225,384.544464 
	C401.191528,405.709167 401.354523,426.875641 401.137756,448.038147 
	C400.890167,472.207642 386.720398,491.904724 364.009399,500.623291 
	C260.312439,501.000000 156.624878,501.000000 52.350937,500.649902 
	C29.250605,492.920532 14.257440,471.969879 14.240713,446.917175 
	C14.153310,316.004395 14.129242,185.091431 14.287028,54.178772 
	C14.310253,34.909389 22.875963,19.586060 38.806892,8.692037 
	C43.225185,5.670682 48.252239,3.539557 53.000000,1.000000 
	C127.687561,1.000000 202.375122,1.000000 277.531342,1.000001 
M312.278442,48.223423 
	C300.251007,36.000443 288.007111,23.979181 276.320679,11.438416 
	C272.540161,7.381527 269.550934,8.281489 266.067291,10.693831 
	C262.535461,13.139579 261.132629,16.744335 261.142303,21.041307 
	C261.209290,50.844124 261.208588,80.647087 261.258423,110.449951 
	C261.277405,121.810745 266.755615,127.432243 278.018921,127.447685 
	C313.816498,127.496750 349.614197,127.470894 385.411835,127.449028 
	C386.584534,127.448311 387.757050,127.177254 389.536163,126.957199 
	C363.578735,100.504776 338.175415,74.616989 312.278442,48.223423 
z"/>
<path fill="#FFFFFF" opacity="1.000000" stroke="none" 
	d="
M287.988586,410.866333 
	C292.033508,396.052887 295.819977,381.585052 300.117950,367.270782 
	C301.210266,363.632904 303.322906,359.881012 305.989899,357.198975 
	C351.225372,311.708252 396.633636,266.389404 441.964783,220.993698 
	C446.041443,216.911224 450.309357,213.777237 456.339935,212.770538 
	C460.770172,212.031006 464.778442,208.822693 469.210663,208.024750 
	C479.379608,206.194016 487.012665,211.111008 492.566986,219.140945 
	C497.959076,226.936279 497.945312,235.262222 493.537567,243.672516 
	C492.588776,245.482834 492.468201,247.711761 491.630890,249.599136 
	C489.850189,253.612915 488.732269,258.404907 485.806671,261.354218 
	C439.570923,307.964630 393.113007,354.354889 346.645508,400.735046 
	C339.314911,408.051880 330.883453,407.960205 323.262329,400.639496 
	C316.818817,394.450012 310.576172,388.051361 303.709412,381.212158 
	C301.227661,390.478027 298.933289,399.044434 296.398773,408.507355 
	C300.681732,407.459595 304.282074,406.576385 307.883789,405.698914 
	C309.335541,405.345184 310.970673,404.419800 312.199982,404.799164 
	C313.888275,405.320221 316.184906,406.613983 316.515228,407.987030 
	C316.819611,409.252167 315.176178,412.060028 313.863007,412.461334 
	C306.722961,414.643127 299.473663,416.562286 292.151978,418.019073 
	C287.792694,418.886475 286.544067,416.564026 287.988586,410.866333 
M388.897156,348.397400 
	C419.368805,317.873474 449.844940,287.354004 480.308075,256.821533 
	C485.668427,251.448975 485.690735,247.247986 480.448120,241.811081 
	C474.669769,235.818527 468.903900,229.813385 463.072998,223.872238 
	C458.862701,219.582382 454.694000,219.444168 450.590515,223.551758 
	C404.102112,270.086334 357.629913,316.637146 311.183594,363.213745 
	C306.707001,367.702911 306.700409,371.668304 311.060791,376.235382 
	C316.810089,382.257111 322.656616,388.186462 328.491974,394.125427 
	C334.097198,399.830109 337.519775,399.842865 343.215424,394.148285 
	C358.288971,379.077606 373.339386,363.983856 388.897156,348.397400 
M487.051117,224.731155 
	C482.309235,216.996277 475.648499,214.126785 468.866455,216.351288 
	C474.962677,222.745804 481.292908,229.385742 487.623108,236.025681 
	C488.084442,235.912796 488.545776,235.799896 489.007080,235.687012 
	C488.454163,232.270096 487.901215,228.853165 487.051117,224.731155 
z"/>
<path fill="#FFFFFF" opacity="1.000000" stroke="none" 
	d="
M340.736237,205.614502 
	C254.127411,205.614502 167.984116,205.614807 81.840813,205.612350 
	C80.175171,205.612305 78.249397,206.099335 76.910110,205.429352 
	C75.256538,204.602142 74.090569,202.800247 72.713905,201.419525 
	C74.153938,200.086884 75.433807,198.473907 77.093506,197.525803 
	C78.103455,196.948883 79.699265,197.387085 81.031906,197.387070 
	C167.841690,197.385361 254.651489,197.385468 341.461273,197.385696 
	C342.460999,197.385696 343.680298,197.023987 344.415649,197.465881 
	C346.044983,198.444992 347.431335,199.828476 348.916779,201.047043 
	C347.511292,202.559799 346.262787,204.284988 344.630707,205.491135 
	C343.871826,206.051987 342.367920,205.604782 340.736237,205.614502 
z"/>
<path fill="#FFFFFF" opacity="1.000000" stroke="none" 
	d="
M332.985168,267.385437 
	C337.146301,267.396210 340.872894,267.020142 344.447632,267.592560 
	C346.061920,267.851074 347.373871,269.997620 348.822998,271.287567 
	C347.423126,272.702362 346.220520,274.463196 344.555237,275.412384 
	C343.412476,276.063751 341.626709,275.610962 340.128357,275.611023 
	C253.670517,275.614868 167.212677,275.614441 80.754845,275.614258 
	C79.921921,275.614258 79.088493,275.630157 78.256165,275.607330 
	C75.380096,275.528503 72.311012,274.833191 72.979858,271.387848 
	C73.291313,269.783508 76.198204,268.468414 78.160515,267.484833 
	C79.226196,266.950684 80.778275,267.385590 82.110954,267.385590 
	C165.570221,267.385406 249.029480,267.385437 332.985168,267.385437 
z"/>
<path fill="#FFFFFF" opacity="1.000000" stroke="none" 
	d="
M230.999817,345.614075 
	C180.892136,345.614075 131.284470,345.614166 81.676811,345.613708 
	C80.345078,345.613708 78.790810,346.045654 77.731041,345.507172 
	C75.901306,344.577484 73.308746,343.283508 72.955635,341.711273 
	C72.272499,338.669586 74.890144,337.541046 77.681274,337.404480 
	C78.843918,337.347595 80.011383,337.386322 81.176651,337.386292 
	C142.437119,337.385834 203.697601,337.385925 264.958069,337.385895 
	C265.457458,337.385895 265.956879,337.386810 266.456268,337.385956 
	C269.525146,337.380707 272.959473,337.191772 272.936432,341.548828 
	C272.913605,345.868896 269.592804,345.655182 266.458069,345.638763 
	C254.805603,345.577667 243.152603,345.614227 230.999817,345.614075 
z"/>
<path fill="#FFFFFF" opacity="1.000000" stroke="none" 
	d="
M126.999832,135.613129 
	C109.346191,135.613129 92.192566,135.616562 75.038933,135.607162 
	C73.542976,135.606339 71.771896,136.007004 70.619400,135.354416 
	C69.111382,134.500504 67.093124,132.748611 67.138275,131.446960 
	C67.185265,130.092392 69.275116,128.583176 70.770729,127.593422 
	C71.597511,127.046280 73.037216,127.391876 74.200638,127.391716 
	C114.836418,127.385918 155.472198,127.386368 196.107986,127.389938 
	C197.106186,127.390030 198.352432,127.066673 199.051086,127.536476 
	C200.519348,128.523788 202.746155,129.956024 202.726044,131.173676 
	C202.702515,132.598602 200.861771,134.431946 199.354431,135.261108 
	C198.049576,135.978882 196.108765,135.602615 194.448975,135.603653 
	C172.132599,135.617691 149.816208,135.613113 126.999832,135.613129 
z"/>
<path fill="#FFFFFF" opacity="1.000000" stroke="none" 
	d="
M134.999771,415.566162 
	C116.705307,415.566132 98.910858,415.566650 81.116409,415.565002 
	C79.786148,415.564880 78.208725,416.000549 77.181854,415.438202 
	C75.518059,414.526978 74.215561,412.956055 72.760521,411.663635 
	C74.208237,410.375580 75.574249,408.971680 77.147675,407.861816 
	C77.704132,407.469330 78.766685,407.792053 79.598190,407.792023 
	C107.038231,407.791412 134.478271,407.787750 161.918304,407.796448 
	C164.710297,407.797333 168.089676,407.205688 167.986023,411.567627 
	C167.892838,415.489716 165.032288,415.643341 161.941559,415.605164 
	C153.128815,415.496307 144.313873,415.566437 134.999771,415.566162 
z"/>
<path fill="#FFFFFF" opacity="1.000000" stroke="none" 
	d="
M271.564636,414.729401 
	C269.951447,415.179657 268.667175,415.544098 267.382477,415.545715 
	C241.936508,415.578064 216.490494,415.568451 191.044479,415.567322 
	C190.379227,415.567291 189.564758,415.815582 189.075043,415.522156 
	C187.152054,414.370056 183.952301,413.232452 183.753128,411.750000 
	C183.306381,408.424927 186.262558,407.762787 189.223969,407.767761 
	C213.173111,407.807953 237.122330,407.790405 261.071533,407.790497 
	C263.399933,407.790497 265.729553,407.741638 268.056458,407.800537 
	C273.030457,407.926453 273.873779,409.419525 271.564636,414.729401 
z"/>
<path fill="#FFFFFF" opacity="1.000000" stroke="none" 
	d="
M393.195831,180.000214 
	C393.196198,173.850540 393.177551,168.200668 393.205170,162.551041 
	C393.218658,159.791183 393.318878,156.966721 397.133728,156.895477 
	C400.917175,156.824829 401.213837,159.458420 401.211578,162.344040 
	C401.194183,184.610779 401.186676,206.877533 401.221191,229.144211 
	C401.225708,232.052048 400.880432,234.746521 397.260376,234.794540 
	C393.241699,234.847870 393.160645,231.894180 393.170349,228.855453 
	C393.221924,212.737152 393.195343,196.618607 393.195831,180.000214 
z"/>
<path fill="#FFFFFF" opacity="1.000000" stroke="none" 
	d="
M406.816284,303.816345 
	C383.731293,326.940033 360.897156,349.814575 338.058441,372.684540 
	C337.118927,373.625336 336.258423,375.064362 335.145538,375.315308 
	C333.437683,375.700500 330.840637,375.928101 329.923645,374.972534 
	C329.003204,374.013397 329.339355,371.436920 329.773743,369.734894 
	C330.060181,368.612518 331.476990,367.765961 332.416565,366.824738 
	C373.378876,325.794067 414.344360,284.766571 455.309570,243.738815 
	C455.898163,243.149338 456.404846,242.194855 457.092224,242.038971 
	C459.406891,241.514038 462.528290,240.171021 463.986420,241.152817 
	C467.049866,243.215561 464.838684,245.718842 462.868469,247.691254 
	C444.265961,266.314484 425.666565,284.940857 406.816284,303.816345 
z"/>
</svg>