<svg version="1.1" id="Layer_1" xmlns="http://www.w3.org/2000/svg" xmlns:xlink="http://www.w3.org/1999/xlink" x="0px" y="0px"
	 width="100%" viewBox="0 0 500 500" enable-background="new 0 0 500 500" xml:space="preserve">
<path fill="#010101" opacity="1.000000" stroke="none" 
	d="
M1.000000,194.000000 
	C1.000000,129.349350 1.000000,65.198708 1.000000,1.024032 
	C167.609024,1.024032 334.218048,1.024032 500.913544,1.024032 
	C500.913544,167.567368 500.913544,334.134796 500.913544,500.851135 
	C334.333435,500.851135 167.666733,500.851135 1.000000,500.851135 
	C1.000000,398.781830 1.000000,296.640900 1.000000,194.000000 
M160.198318,373.256592 
	C160.083481,373.124725 159.968628,372.992889 159.942429,372.158539 
	C160.197708,369.845581 160.452988,367.532593 160.708252,365.219635 
	C158.093948,365.517792 155.473557,365.771942 152.867889,366.132538 
	C151.553436,366.314453 150.265701,366.689362 149.051666,366.300446 
	C154.232224,360.062225 159.412781,353.823975 163.721985,348.635010 
	C158.277756,347.547455 153.860703,353.427338 149.397995,358.419434 
	C144.765060,363.601898 140.861404,369.436310 136.638809,374.985596 
	C136.096329,374.675781 135.553848,374.365967 135.011368,374.056152 
	C139.444946,365.283356 143.878540,356.510529 148.312119,347.737701 
	C147.885666,347.312378 147.459213,346.887054 147.032761,346.461731 
	C145.025589,347.807190 142.716614,348.856842 141.060608,350.546448 
	C130.820953,360.993835 120.750023,371.606415 110.555199,382.098145 
	C109.453957,383.231476 107.944214,383.984344 106.578125,384.840515 
	C103.230392,386.938660 99.855858,388.994019 96.303596,391.182709 
	C99.262299,395.401031 102.069290,395.146454 104.545509,392.836487 
	C112.550407,385.369080 120.377106,377.710419 128.253494,370.105774 
	C129.317337,369.078613 130.272614,367.938995 131.278183,366.851471 
	C131.167938,370.761993 129.524063,373.930420 129.146683,377.243164 
	C128.839294,379.941498 129.149399,384.335938 130.769974,385.291534 
	C134.202271,387.315430 135.352509,382.992767 137.264587,380.909760 
	C139.058273,378.955750 141.166824,377.290833 143.131882,376.317474 
	C143.215149,378.488342 142.770065,380.900787 143.605423,382.727783 
	C144.020737,383.636078 146.857269,383.918243 148.466080,383.659698 
	C149.966736,383.418579 151.280975,382.067383 152.696960,381.238464 
	C155.439926,379.632782 158.280228,378.177124 160.927521,376.428162 
	C164.552460,374.033386 168.035126,371.423218 171.578766,368.905365 
	C171.298401,368.568573 171.018036,368.231812 170.737671,367.895020 
	C167.315887,369.831329 163.894119,371.767639 160.198318,373.256592 
M214.114136,354.746185 
	C212.450668,361.213135 200.844681,368.195160 192.620941,367.410248 
	C196.361679,363.018127 199.970230,358.781250 204.333160,353.658630 
	C202.254730,353.898438 201.365738,353.727325 201.039368,354.078735 
	C193.405396,362.298431 185.702988,370.463806 178.406906,378.976654 
	C177.464890,380.075745 178.684387,383.027374 179.024734,386.292450 
	C183.529938,379.766022 186.984482,374.761597 190.413773,369.793762 
	C198.351349,373.967407 208.622864,370.065643 216.105972,361.137451 
	C215.555695,362.401825 215.126434,363.737305 214.432648,364.917328 
	C212.254135,368.622620 209.534302,372.088593 207.926468,376.016632 
	C207.144180,377.927826 207.570908,381.523590 208.917862,382.766846 
	C210.152847,383.906738 213.414536,383.189331 215.680252,382.754120 
	C217.171341,382.467682 218.479797,381.230469 219.854889,380.427826 
	C222.871719,385.049133 221.582520,386.071930 232.021545,378.852692 
	C232.455505,380.489166 232.889450,382.125641 233.531769,384.547852 
	C237.331757,382.114929 240.473923,380.103149 243.658188,378.064423 
	C244.654633,384.058075 246.453903,385.310455 252.088120,383.161530 
	C256.370850,381.528076 260.387360,379.196716 264.544403,377.165100 
	C265.466675,384.056641 268.117981,385.887146 274.527496,382.735321 
	C280.440826,379.827545 285.831635,375.828400 291.336761,372.137207 
	C292.959564,371.049103 294.188843,369.374084 295.598450,367.968048 
	C286.781799,371.737030 280.017700,379.135620 269.626862,379.071075 
	C270.169708,377.564667 271.000275,376.384247 272.136993,375.777252 
	C275.667297,373.892212 279.443604,372.434937 282.833893,370.341187 
	C283.811462,369.737396 284.542572,366.580872 284.118988,366.257996 
	C282.740753,365.207581 280.514526,364.084534 279.091187,364.525909 
	C276.147949,365.438721 273.428986,367.209167 270.768280,368.868225 
	C266.396759,371.593933 262.277039,374.747742 257.791718,377.257416 
	C255.216095,378.698517 252.129471,379.226349 249.272903,380.165344 
	C248.805923,379.545929 248.338959,378.926514 247.871994,378.307098 
	C250.608017,375.083527 253.344055,371.859955 256.080078,368.636383 
	C256.282349,369.230591 256.484589,369.824768 256.686829,370.418945 
	C257.816040,370.953186 259.433899,372.245636 259.988373,371.888214 
	C262.193054,370.467285 264.065887,368.531464 266.061615,366.786346 
	C264.692383,365.947937 262.947296,364.097046 262.017456,364.442261 
	C257.418457,366.149506 252.927887,368.240082 248.610229,370.584381 
	C245.302444,372.380341 242.308945,374.755219 239.175659,376.872589 
	C238.867828,376.483978 238.560013,376.095398 238.252182,375.706787 
	C240.640793,372.710266 243.029404,369.713715 245.408951,366.728546 
	C241.529541,363.595032 238.141312,363.725586 234.757980,365.902161 
	C232.248398,367.516663 229.884735,369.358185 227.373093,370.969238 
	C222.604355,374.028076 217.776093,376.994141 212.972565,379.998779 
	C212.388062,379.323059 211.803574,378.647369 211.219070,377.971649 
	C212.919800,376.101715 214.460541,374.048920 216.350479,372.395172 
	C222.717804,366.823578 229.295212,361.488708 235.564499,355.811768 
	C236.550934,354.918579 236.356903,352.721710 236.708679,351.127625 
	C235.180374,351.174713 233.321808,350.675354 232.181503,351.364502 
	C227.506729,354.189606 223.021805,357.335083 218.528961,360.451935 
	C216.778931,361.665985 216.853439,361.773376 215.987244,359.334564 
	C215.909363,357.556580 215.831482,355.778595 215.659409,353.343445 
	C212.195358,347.720642 206.628616,346.017151 200.640854,346.263794 
	C191.081879,346.657654 182.338211,349.582062 175.723419,357.007294 
	C173.640442,359.345520 172.156601,362.160553 174.546631,365.061005 
	C177.118103,368.181641 180.292099,367.201141 183.024429,365.260834 
	C185.257568,363.675049 187.137985,361.592529 189.174789,359.730286 
	C188.970245,359.549072 188.765701,359.367889 188.561157,359.186707 
	C184.865540,360.661072 181.169907,362.135437 177.474289,363.609802 
	C185.777145,353.210236 203.415176,348.959778 214.114136,354.746185 
M253.922958,302.465271 
	C253.922958,311.531555 253.922958,320.597870 253.922958,330.352875 
	C309.773499,327.950806 354.416718,304.352783 382.498840,255.356552 
	C414.160492,200.114960 411.500092,144.181259 375.031464,91.916336 
	C345.946136,50.232712 304.270203,29.987797 253.305542,28.572792 
	C253.305542,34.645947 253.305542,39.723988 253.305542,44.780895 
	C332.777618,46.410599 389.843079,111.061325 387.198975,183.839691 
	C384.407379,260.677887 322.100952,309.162964 266.013245,312.831299 
	C266.548157,265.902344 267.082733,219.001175 267.624756,171.449249 
	C268.446136,172.341736 268.770691,172.542938 268.869415,172.823563 
	C272.785919,183.955627 276.669189,195.099380 280.584595,206.231827 
	C283.790344,215.346771 283.806061,215.343903 293.628540,214.921356 
	C293.945831,214.907700 294.255646,214.720764 294.669220,214.580643 
	C299.645477,200.414948 304.642761,186.189392 309.640045,171.963852 
	C310.115814,172.068192 310.591614,172.172516 311.067413,172.276840 
	C311.067413,186.461334 311.067413,200.645844 311.067413,214.725952 
	C315.396362,214.725952 319.160278,214.725952 322.899078,214.725952 
	C322.899078,192.723190 322.899078,171.003754 322.899078,148.998291 
	C318.425323,148.998291 314.263916,149.236740 310.145508,148.918564 
	C307.156799,148.687637 306.117767,150.021896 305.292664,152.548492 
	C302.248688,161.869858 299.048523,171.140518 295.868744,180.417084 
	C293.943756,186.032990 291.948151,191.624680 289.637909,198.215408 
	C288.755341,195.965775 288.242798,194.783966 287.822968,193.570114 
	C283.096130,179.904022 278.437225,166.213882 273.586273,152.592087 
	C273.087341,151.191071 271.537689,149.260300 270.349854,149.166458 
	C265.443756,148.778809 260.489227,149.003983 255.666656,149.003983 
	C255.086487,200.241226 254.513351,250.857941 253.922958,302.465271 
M206.112946,147.352158 
	C197.826584,150.214111 193.428558,155.980774 192.783279,164.764099 
	C192.033890,174.964661 196.670761,181.520706 206.688736,184.849274 
	C205.761047,185.676544 205.332596,186.105286 204.858017,186.474777 
	C198.489029,191.432922 196.367325,197.246475 198.317734,204.428162 
	C200.036575,210.757156 205.565002,215.572403 213.114059,215.859055 
	C224.552948,216.293411 236.020538,215.972534 247.923599,215.972534 
	C248.451538,153.617004 248.978638,91.360855 249.511078,28.473228 
	C189.594376,31.247431 143.934799,56.741543 116.484619,108.937416 
	C87.869896,163.347610 91.893822,217.791061 127.625664,267.954529 
	C156.867447,309.006714 198.273956,328.924438 248.774719,330.377716 
	C248.774719,324.350983 248.774719,319.254211 248.774719,314.167023 
	C163.267410,312.456238 103.754173,237.708481 116.392113,158.518692 
	C122.506165,120.207809 142.117477,90.012230 174.085220,68.064667 
	C193.459457,54.763203 214.937149,47.257053 238.480881,45.619511 
	C238.480881,79.520256 238.480881,112.609398 238.480881,145.993164 
	C233.089142,145.993164 227.933304,145.846115 222.789673,146.033890 
	C217.485245,146.227524 212.192703,146.747040 206.112946,147.352158 
M361.462799,383.160980 
	C359.531494,381.401733 357.600220,379.642487 355.554749,377.779236 
	C359.112885,375.944916 362.356232,374.637482 365.150360,372.686615 
	C366.664978,371.629150 367.414185,369.475403 368.508667,367.816223 
	C366.463440,367.475128 364.428009,367.025177 362.368744,366.840698 
	C361.398590,366.753754 360.382782,367.176788 359.387695,367.368744 
	C359.177917,367.064575 358.968170,366.760406 358.758423,366.456238 
	C363.329529,361.463196 367.900665,356.470154 372.471771,351.477112 
	C372.070007,351.016022 371.668243,350.554962 371.266449,350.093903 
	C357.355377,357.443939 350.645721,374.512024 333.774902,378.379242 
	C336.530029,374.448822 339.285156,370.518402 342.040283,366.587982 
	C341.633453,366.225281 341.226624,365.862579 340.819824,365.499878 
	C333.543884,367.428497 331.666870,374.485779 328.846436,380.039032 
	C324.276642,379.165405 319.836975,378.316620 315.162720,377.423004 
	C317.732971,374.017944 320.013153,370.548676 322.775818,367.519348 
	C324.236359,365.917847 326.560822,365.119324 328.453583,363.893951 
	C333.388397,360.699005 338.425781,357.636353 343.123779,354.121979 
	C344.163910,353.343872 344.811462,350.050446 344.172974,349.433685 
	C342.849792,348.155548 340.148499,346.869446 338.715149,347.418274 
	C334.935425,348.865417 330.896118,350.658966 328.107025,353.457520 
	C322.126831,359.457947 316.667938,366.018921 311.397003,372.668549 
	C308.595154,376.203247 305.537537,377.680206 301.021912,378.158691 
	C296.567719,378.630676 291.981354,380.297546 288.043762,382.497528 
	C284.304291,384.586792 284.977386,388.409760 289.062653,389.963135 
	C290.955292,390.682770 293.443359,391.017120 295.296814,390.410980 
	C299.043884,389.185516 302.523376,387.156891 306.151215,385.545074 
	C307.762848,384.829010 309.456635,383.845184 311.130676,383.809540 
	C315.618195,383.714081 320.278046,383.380005 324.570251,384.399780 
	C330.956268,385.917023 336.196228,384.194305 340.684052,381.059052 
	C341.729401,382.438416 342.636993,383.636047 343.579712,384.880066 
	C346.528534,381.517273 348.305450,379.490875 350.221893,377.305359 
	C352.842743,380.149200 354.764465,382.747864 357.217316,384.668030 
	C358.354919,385.558624 360.526245,385.128754 362.228943,385.297516 
	C362.175964,384.725708 362.122955,384.153870 361.462799,383.160980 
M314.107941,450.701782 
	C321.750488,440.309418 320.680359,425.816162 311.627716,417.109558 
	C307.449005,413.090668 302.207947,412.768890 298.776184,416.320648 
	C292.392334,422.927734 291.093140,440.794800 296.451141,448.295258 
	C300.929565,454.564423 307.768646,455.740997 314.107941,450.701782 
M258.898132,447.439789 
	C261.835663,451.997925 265.967285,454.615295 271.425049,453.945618 
	C276.757385,453.291351 278.969452,448.889679 280.739166,444.542694 
	C284.393555,435.566528 281.289520,422.913879 274.110016,416.609192 
	C269.034912,412.152588 262.915955,412.939056 260.021423,418.982086 
	C255.731964,427.937347 254.115875,437.264282 258.898132,447.439789 
M212.960800,419.594421 
	C216.240265,425.945099 215.542282,429.196930 209.934082,433.210846 
	C206.963730,435.336792 203.766907,437.172729 200.945450,439.474396 
	C196.104919,443.423309 193.998611,448.523743 195.116272,454.578247 
	C203.633835,454.578247 211.768234,454.578247 219.902618,454.578247 
	C219.999664,453.932220 220.096710,453.286194 220.193756,452.640167 
	C216.743423,452.155701 213.303375,451.387604 209.840027,451.262054 
	C205.938950,451.120605 202.016891,451.558136 198.103958,451.743835 
	C197.697189,451.323883 197.290405,450.903900 196.883636,450.483948 
	C199.230591,447.305817 201.258453,443.808685 204.020554,441.045563 
	C206.443787,438.621368 209.708237,437.045807 212.569519,435.050079 
	C217.153992,431.852417 218.974945,427.536407 217.557556,422.054260 
	C216.221695,416.887573 212.481628,414.522217 207.494598,413.695831 
	C202.213730,412.820740 196.334305,415.070587 193.992416,419.161499 
	C193.271255,420.421234 193.269302,422.092651 192.641464,424.903168 
	C202.753265,415.457092 205.134048,414.853760 212.960800,419.594421 
M375.777222,375.866852 
	C378.675781,373.957550 381.714325,372.220276 384.392914,370.040649 
	C385.267883,369.328644 385.844055,367.169525 385.399017,366.208252 
	C384.920135,365.173889 383.101013,364.227051 381.833160,364.181885 
	C375.936798,363.971832 366.727783,372.809540 366.534576,378.683105 
	C366.415222,382.312653 368.020294,384.817444 371.909576,383.880402 
	C382.036011,381.440521 389.759796,375.168427 396.621826,367.635376 
	C388.098969,371.513580 381.382294,379.131561 371.102295,379.752380 
	C370.751984,376.396729 371.851318,375.113312 375.777222,375.866852 
M240.771072,419.146149 
	C238.920273,424.999878 236.966278,430.823517 235.247971,436.715881 
	C233.562561,442.495483 232.116882,448.344971 230.565994,454.163788 
	C231.232071,454.370148 231.898148,454.576477 232.564240,454.782806 
	C233.082870,453.717102 233.744324,452.696503 234.097458,451.578491 
	C236.847321,442.872894 239.582153,434.162018 242.235352,425.426544 
	C245.473831,414.764069 245.435989,414.654633 234.227432,414.829468 
	C229.451767,414.903931 224.684021,415.486816 219.912689,415.838684 
	C219.945526,416.667145 219.978378,417.495575 220.011230,418.324005 
	C226.865417,418.324005 233.719620,418.324005 240.771072,419.146149 
M337.212189,445.348236 
	C337.788483,448.572754 338.364746,451.797302 338.941040,455.021820 
	C339.494781,454.903656 340.048492,454.785522 340.602234,454.667358 
	C340.753082,453.747742 341.090088,452.815033 341.026367,451.910553 
	C340.266846,441.129242 339.576508,430.339447 338.519806,419.586151 
	C338.339905,417.755066 336.828308,414.989563 335.392944,414.589478 
	C333.066803,413.941101 328.497894,419.291046 328.584808,422.117249 
	C330.767303,420.951202 332.797729,419.866425 335.474304,418.436401 
	C336.057617,427.577301 336.595734,436.009735 337.212189,445.348236 
M182.191971,429.551300 
	C183.260223,451.171021 183.581207,453.068878 186.640335,454.691254 
	C186.792465,453.838470 187.099136,453.048431 187.044830,452.284058 
	C186.267319,441.341797 185.569427,430.390411 184.498138,419.475983 
	C184.322998,417.691742 182.664658,414.877441 181.314651,414.634399 
	C178.688232,414.161560 174.424683,419.345276 174.683060,422.173645 
	C176.754135,420.974579 178.687454,419.855316 181.366989,418.303986 
	C181.654633,422.130920 181.897903,425.367676 182.191971,429.551300 
z"/>
<path fill="#FABA57" opacity="1.000000" stroke="none" 
	d="
M253.931580,301.969971 
	C254.513351,250.857941 255.086487,200.241226 255.666656,149.003983 
	C260.489227,149.003983 265.443756,148.778809 270.349854,149.166458 
	C271.537689,149.260300 273.087341,151.191071 273.586273,152.592087 
	C278.437225,166.213882 283.096130,179.904022 287.822968,193.570114 
	C288.242798,194.783966 288.755341,195.965775 289.637909,198.215408 
	C291.948151,191.624680 293.943756,186.032990 295.868744,180.417084 
	C299.048523,171.140518 302.248688,161.869858 305.292664,152.548492 
	C306.117767,150.021896 307.156799,148.687637 310.145508,148.918564 
	C314.263916,149.236740 318.425323,148.998291 322.899078,148.998291 
	C322.899078,171.003754 322.899078,192.723190 322.899078,214.725952 
	C319.160278,214.725952 315.396362,214.725952 311.067413,214.725952 
	C311.067413,200.645844 311.067413,186.461334 311.067413,172.276840 
	C310.591614,172.172516 310.115814,172.068192 309.640045,171.963852 
	C304.642761,186.189392 299.645477,200.414948 294.669220,214.580643 
	C294.255646,214.720764 293.945831,214.907700 293.628540,214.921356 
	C283.806061,215.343903 283.790344,215.346771 280.584595,206.231827 
	C276.669189,195.099380 272.785919,183.955627 268.869415,172.823563 
	C268.770691,172.542938 268.446136,172.341736 267.624756,171.449249 
	C267.082733,219.001175 266.548157,265.902344 266.013245,312.831299 
	C322.100952,309.162964 384.407379,260.677887 387.198975,183.839691 
	C389.843079,111.061325 332.777618,46.410599 253.305542,44.780895 
	C253.305542,39.723988 253.305542,34.645947 253.305542,28.572792 
	C304.270203,29.987797 345.946136,50.232712 375.031464,91.916336 
	C411.500092,144.181259 414.160492,200.114960 382.498840,255.356552 
	C354.416718,304.352783 309.773499,327.950806 253.922958,330.352875 
	C253.922958,320.597870 253.922958,311.531555 253.931580,301.969971 
z"/>
<path fill="#FBFBFB" opacity="1.000000" stroke="none" 
	d="
M206.503952,147.238068 
	C212.192703,146.747040 217.485245,146.227524 222.789673,146.033890 
	C227.933304,145.846115 233.089142,145.993164 238.480881,145.993164 
	C238.480881,112.609398 238.480881,79.520256 238.480881,45.619511 
	C214.937149,47.257053 193.459457,54.763203 174.085220,68.064667 
	C142.117477,90.012230 122.506165,120.207809 116.392113,158.518692 
	C103.754173,237.708481 163.267410,312.456238 248.774719,314.167023 
	C248.774719,319.254211 248.774719,324.350983 248.774719,330.377716 
	C198.273956,328.924438 156.867447,309.006714 127.625664,267.954529 
	C91.893822,217.791061 87.869896,163.347610 116.484619,108.937416 
	C143.934799,56.741543 189.594376,31.247431 249.511078,28.473228 
	C248.978638,91.360855 248.451538,153.617004 247.923599,215.972534 
	C236.020538,215.972534 224.552948,216.293411 213.114059,215.859055 
	C205.565002,215.572403 200.036575,210.757156 198.317734,204.428162 
	C196.367325,197.246475 198.489029,191.432922 204.858017,186.474777 
	C205.332596,186.105286 205.761047,185.676544 206.688736,184.849274 
	C196.670761,181.520706 192.033890,174.964661 192.783279,164.764099 
	C193.428558,155.980774 197.826584,150.214111 206.503952,147.238068 
M232.278595,157.006897 
	C226.793137,157.056000 221.282074,156.792206 215.829071,157.238129 
	C209.814026,157.730026 206.970123,161.210342 206.872864,167.132248 
	C206.771835,173.283493 209.293503,176.995453 215.188797,177.535690 
	C221.368500,178.101974 227.640366,177.662323 234.353409,177.662323 
	C233.965958,170.495651 233.603088,163.783966 232.278595,157.006897 
M233.991547,194.595612 
	C233.991547,192.524780 233.991547,190.453964 233.991547,188.338745 
	C228.586792,188.338745 223.927170,188.064453 219.313751,188.408936 
	C213.689026,188.828949 211.055405,191.852402 211.064178,197.043549 
	C211.073013,202.271133 213.725159,205.330429 219.287338,205.715424 
	C224.035355,206.044067 228.824173,205.783386 233.991547,205.783386 
	C233.991547,202.135925 233.991547,198.849533 233.991547,194.595612 
z"/>
<path fill="#EEEEEE" opacity="1.000000" stroke="none" 
	d="
M215.482208,360.103088 
	C216.853439,361.773376 216.778931,361.665985 218.528961,360.451935 
	C223.021805,357.335083 227.506729,354.189606 232.181503,351.364502 
	C233.321808,350.675354 235.180374,351.174713 236.708679,351.127625 
	C236.356903,352.721710 236.550934,354.918579 235.564499,355.811768 
	C229.295212,361.488708 222.717804,366.823578 216.350479,372.395172 
	C214.460541,374.048920 212.919800,376.101715 211.219070,377.971649 
	C211.803574,378.647369 212.388062,379.323059 212.972565,379.998779 
	C217.776093,376.994141 222.604355,374.028076 227.373093,370.969238 
	C229.884735,369.358185 232.248398,367.516663 234.757980,365.902161 
	C238.141312,363.725586 241.529541,363.595032 245.408951,366.728546 
	C243.029404,369.713715 240.640793,372.710266 238.252182,375.706787 
	C238.560013,376.095398 238.867828,376.483978 239.175659,376.872589 
	C242.308945,374.755219 245.302444,372.380341 248.610229,370.584381 
	C252.927887,368.240082 257.418457,366.149506 262.017456,364.442261 
	C262.947296,364.097046 264.692383,365.947937 266.061615,366.786346 
	C264.065887,368.531464 262.193054,370.467285 259.988373,371.888214 
	C259.433899,372.245636 257.816040,370.953186 256.686829,370.418945 
	C256.484589,369.824768 256.282349,369.230591 256.080078,368.636383 
	C253.344055,371.859955 250.608017,375.083527 247.871994,378.307098 
	C248.338959,378.926514 248.805923,379.545929 249.272903,380.165344 
	C252.129471,379.226349 255.216095,378.698517 257.791718,377.257416 
	C262.277039,374.747742 266.396759,371.593933 270.768280,368.868225 
	C273.428986,367.209167 276.147949,365.438721 279.091187,364.525909 
	C280.514526,364.084534 282.740753,365.207581 284.118988,366.257996 
	C284.542572,366.580872 283.811462,369.737396 282.833893,370.341187 
	C279.443604,372.434937 275.667297,373.892212 272.136993,375.777252 
	C271.000275,376.384247 270.169708,377.564667 269.626862,379.071075 
	C280.017700,379.135620 286.781799,371.737030 295.598450,367.968048 
	C294.188843,369.374084 292.959564,371.049103 291.336761,372.137207 
	C285.831635,375.828400 280.440826,379.827545 274.527496,382.735321 
	C268.117981,385.887146 265.466675,384.056641 264.544403,377.165100 
	C260.387360,379.196716 256.370850,381.528076 252.088120,383.161530 
	C246.453903,385.310455 244.654633,384.058075 243.658188,378.064423 
	C240.473923,380.103149 237.331757,382.114929 233.531769,384.547852 
	C232.889450,382.125641 232.455505,380.489166 232.021820,378.856262 
	C221.582520,386.071930 222.871719,385.049133 219.854889,380.427826 
	C218.479797,381.230469 217.171341,382.467682 215.680252,382.754120 
	C213.414536,383.189331 210.152847,383.906738 208.917862,382.766846 
	C207.570908,381.523590 207.144180,377.927826 207.926468,376.016632 
	C209.534302,372.088593 212.254135,368.622620 214.432648,364.917328 
	C215.126434,363.737305 215.555695,362.401825 215.589630,360.838196 
	C215.170609,360.358002 215.306915,360.212738 215.482208,360.103088 
M235.846664,369.435486 
	C233.206238,371.691132 230.565811,373.946747 227.925369,376.202393 
	C228.287491,376.623596 228.649597,377.044830 229.011719,377.466034 
	C231.767288,375.080994 234.522858,372.695953 237.829559,370.096100 
	C238.490143,369.652954 239.150726,369.209778 239.811325,368.766632 
	C239.523361,368.472046 239.235413,368.177429 238.947449,367.882843 
	C238.125946,368.306030 237.304443,368.729218 235.846664,369.435486 
M258.537567,368.022308 
	C258.407654,368.398560 258.277740,368.774811 258.147827,369.151031 
	C258.554779,369.193359 258.961700,369.235687 259.368652,369.278046 
	C259.411926,368.798950 259.455200,368.319855 258.537567,368.022308 
z"/>
<path fill="#F1F1F1" opacity="1.000000" stroke="none" 
	d="
M361.766388,383.371521 
	C362.122955,384.153870 362.175964,384.725708 362.228943,385.297516 
	C360.526245,385.128754 358.354919,385.558624 357.217316,384.668030 
	C354.764465,382.747864 352.842743,380.149200 350.221893,377.305359 
	C348.305450,379.490875 346.528534,381.517273 343.579712,384.880066 
	C342.636993,383.636047 341.729401,382.438416 340.684052,381.059052 
	C336.196228,384.194305 330.956268,385.917023 324.570251,384.399780 
	C320.278046,383.380005 315.618195,383.714081 311.130676,383.809540 
	C309.456635,383.845184 307.762848,384.829010 306.151215,385.545074 
	C302.523376,387.156891 299.043884,389.185516 295.296814,390.410980 
	C293.443359,391.017120 290.955292,390.682770 289.062653,389.963135 
	C284.977386,388.409760 284.304291,384.586792 288.043762,382.497528 
	C291.981354,380.297546 296.567719,378.630676 301.021912,378.158691 
	C305.537537,377.680206 308.595154,376.203247 311.397003,372.668549 
	C316.667938,366.018921 322.126831,359.457947 328.107025,353.457520 
	C330.896118,350.658966 334.935425,348.865417 338.715149,347.418274 
	C340.148499,346.869446 342.849792,348.155548 344.172974,349.433685 
	C344.811462,350.050446 344.163910,353.343872 343.123779,354.121979 
	C338.425781,357.636353 333.388397,360.699005 328.453583,363.893951 
	C326.560822,365.119324 324.236359,365.917847 322.775818,367.519348 
	C320.013153,370.548676 317.732971,374.017944 315.162720,377.423004 
	C319.836975,378.316620 324.276642,379.165405 328.846436,380.039032 
	C331.666870,374.485779 333.543884,367.428497 340.819824,365.499878 
	C341.226624,365.862579 341.633453,366.225281 342.040283,366.587982 
	C339.285156,370.518402 336.530029,374.448822 333.774902,378.379242 
	C350.645721,374.512024 357.355377,357.443939 371.266449,350.093903 
	C371.668243,350.554962 372.070007,351.016022 372.471771,351.477112 
	C367.900665,356.470154 363.329529,361.463196 358.758423,366.456238 
	C358.968170,366.760406 359.177917,367.064575 359.387695,367.368744 
	C360.382782,367.176788 361.398590,366.753754 362.368744,366.840698 
	C364.428009,367.025177 366.463440,367.475128 368.508667,367.816223 
	C367.414185,369.475403 366.664978,371.629150 365.150360,372.686615 
	C362.356232,374.637482 359.112885,375.944916 355.554749,377.779236 
	C357.600220,379.642487 359.531494,381.401733 361.766388,383.371521 
M326.467773,362.131348 
	C326.506714,362.344910 326.545654,362.558441 326.584625,362.772003 
	C326.729004,362.527191 326.873383,362.282379 327.410461,362.442871 
	C327.731720,362.257233 328.052948,362.071594 329.047150,361.635406 
	C333.233154,358.065643 337.419128,354.495850 341.605133,350.926086 
	C341.186584,350.479797 340.768036,350.033539 340.349487,349.587250 
	C334.928589,351.870087 330.965576,355.869537 327.276764,361.004089 
	C327.184387,361.335938 327.092010,361.667786 326.467773,362.131348 
M294.192322,384.711304 
	C292.391785,385.423187 290.591248,386.135071 288.790680,386.846954 
	C289.018250,387.434998 289.245789,388.023041 289.473328,388.611053 
	C292.846893,387.453064 296.220459,386.295074 299.594025,385.137054 
	C299.465912,384.699127 299.337830,384.261200 299.209747,383.823273 
	C297.788208,384.037872 296.366699,384.252502 294.192322,384.711304 
M358.000000,367.500000 
	C358.199982,367.633331 358.399994,367.766663 358.600006,367.899994 
	C358.566681,367.600006 358.533356,367.299988 358.000000,367.500000 
z"/>
<path fill="#F0F0F0" opacity="1.000000" stroke="none" 
	d="
M143.136841,375.498688 
	C141.166824,377.290833 139.058273,378.955750 137.264587,380.909760 
	C135.352509,382.992767 134.202271,387.315430 130.769974,385.291534 
	C129.149399,384.335938 128.839294,379.941498 129.146683,377.243164 
	C129.524063,373.930420 131.167938,370.761993 131.278183,366.851471 
	C130.272614,367.938995 129.317337,369.078613 128.253494,370.105774 
	C120.377106,377.710419 112.550407,385.369080 104.545509,392.836487 
	C102.069290,395.146454 99.262299,395.401031 96.303596,391.182709 
	C99.855858,388.994019 103.230392,386.938660 106.578125,384.840515 
	C107.944214,383.984344 109.453957,383.231476 110.555199,382.098145 
	C120.750023,371.606415 130.820953,360.993835 141.060608,350.546448 
	C142.716614,348.856842 145.025589,347.807190 147.032761,346.461731 
	C147.459213,346.887054 147.885666,347.312378 148.312119,347.737701 
	C143.878540,356.510529 139.444946,365.283356 135.011368,374.056152 
	C135.553848,374.365967 136.096329,374.675781 136.638809,374.985596 
	C140.861404,369.436310 144.765060,363.601898 149.397995,358.419434 
	C153.860703,353.427338 158.277756,347.547455 163.721985,348.635010 
	C159.412781,353.823975 154.232224,360.062225 149.039764,366.639526 
	C149.027863,366.978638 148.999954,366.919708 148.626801,367.049072 
	C148.156830,367.807800 148.060028,368.437134 148.013550,369.050781 
	C148.063889,369.035126 148.060593,368.929718 147.514145,368.902161 
	C146.971024,369.449585 146.974350,370.024536 146.701294,370.659790 
	C145.602615,371.094666 144.780350,371.469238 143.902176,372.143097 
	C143.873535,372.643524 143.900787,372.844635 143.977859,373.030334 
	C144.027679,373.014923 144.005569,372.912964 143.562531,373.099182 
	C143.072159,374.048889 143.024841,374.812408 143.033905,375.590759 
	C143.090302,375.605652 143.136841,375.498688 143.136841,375.498688 
M136.278030,376.283661 
	C136.234665,375.903809 136.191315,375.523956 136.147964,375.144104 
	C135.797028,375.263763 135.446106,375.383423 135.095169,375.503082 
	C135.298721,376.000031 135.502274,376.496948 136.278030,376.283661 
z"/>
<path fill="#E9AD51" opacity="1.000000" stroke="none" 
	d="
M313.849915,450.972900 
	C307.768646,455.740997 300.929565,454.564423 296.451141,448.295258 
	C291.093140,440.794800 292.392334,422.927734 298.776184,416.320648 
	C302.207947,412.768890 307.449005,413.090668 311.627716,417.109558 
	C320.680359,425.816162 321.750488,440.309418 313.849915,450.972900 
M311.443024,449.091980 
	C318.199371,440.164734 317.608032,427.764374 310.048798,419.852875 
	C306.560608,416.202240 301.077759,416.852783 299.155945,421.424011 
	C296.267151,428.295105 294.903381,435.461945 297.104889,442.830933 
	C299.113342,449.553741 305.124176,452.429535 311.443024,449.091980 
z"/>
<path fill="#E9AD51" opacity="1.000000" stroke="none" 
	d="
M258.696106,447.121521 
	C254.115875,437.264282 255.731964,427.937347 260.021423,418.982086 
	C262.915955,412.939056 269.034912,412.152588 274.110016,416.609192 
	C281.289520,422.913879 284.393555,435.566528 280.739166,444.542694 
	C278.969452,448.889679 276.757385,453.291351 271.425049,453.945618 
	C265.967285,454.615295 261.835663,451.997925 258.696106,447.121521 
M265.047852,417.957642 
	C258.855377,423.830536 257.007019,439.414093 261.741119,446.185455 
	C262.400238,447.128204 263.206207,448.015259 264.096375,448.741608 
	C268.640411,452.449371 273.199860,451.740540 276.205658,446.707367 
	C280.627045,439.303955 279.943115,431.830933 276.169220,424.385681 
	C274.024048,420.153656 271.408081,416.746552 265.047852,417.957642 
z"/>
<path fill="#E9AC51" opacity="1.000000" stroke="none" 
	d="
M212.672852,419.310974 
	C205.134048,414.853760 202.753265,415.457092 192.641464,424.903168 
	C193.269302,422.092651 193.271255,420.421234 193.992416,419.161499 
	C196.334305,415.070587 202.213730,412.820740 207.494598,413.695831 
	C212.481628,414.522217 216.221695,416.887573 217.557556,422.054260 
	C218.974945,427.536407 217.153992,431.852417 212.569519,435.050079 
	C209.708237,437.045807 206.443787,438.621368 204.020554,441.045563 
	C201.258453,443.808685 199.230591,447.305817 196.883636,450.483948 
	C197.290405,450.903900 197.697189,451.323883 198.103958,451.743835 
	C202.016891,451.558136 205.938950,451.120605 209.840027,451.262054 
	C213.303375,451.387604 216.743423,452.155701 220.193756,452.640167 
	C220.096710,453.286194 219.999664,453.932220 219.902618,454.578247 
	C211.768234,454.578247 203.633835,454.578247 195.116272,454.578247 
	C193.998611,448.523743 196.104919,443.423309 200.945450,439.474396 
	C203.766907,437.172729 206.963730,435.336792 209.934082,433.210846 
	C215.542282,429.196930 216.240265,425.945099 212.672852,419.310974 
z"/>
<path fill="#EDEDED" opacity="1.000000" stroke="none" 
	d="
M214.043961,353.986115 
	C203.415176,348.959778 185.777145,353.210236 177.474289,363.609802 
	C181.169907,362.135437 184.865540,360.661072 188.561157,359.186707 
	C188.765701,359.367889 188.970245,359.549072 189.174789,359.730286 
	C187.137985,361.592529 185.257568,363.675049 183.024429,365.260834 
	C180.292099,367.201141 177.118103,368.181641 174.546631,365.061005 
	C172.156601,362.160553 173.640442,359.345520 175.723419,357.007294 
	C182.338211,349.582062 191.081879,346.657654 200.640854,346.263794 
	C206.628616,346.017151 212.195358,347.720642 215.421539,353.672119 
	C214.803772,353.995911 214.423859,353.990997 214.043961,353.986115 
z"/>
<path fill="#EEEEEE" opacity="1.000000" stroke="none" 
	d="
M214.079041,354.366150 
	C214.423859,353.990997 214.803772,353.995911 215.468628,354.000732 
	C215.831482,355.778595 215.909363,357.556580 215.734726,359.718811 
	C215.306915,360.212738 215.170609,360.358002 215.048279,360.636536 
	C208.622864,370.065643 198.351349,373.967407 190.413773,369.793762 
	C186.984482,374.761597 183.529938,379.766022 179.024734,386.292450 
	C178.684387,383.027374 177.464890,380.075745 178.406906,378.976654 
	C185.702988,370.463806 193.405396,362.298431 201.039368,354.078735 
	C201.365738,353.727325 202.254730,353.898438 204.333160,353.658630 
	C199.970230,358.781250 196.361679,363.018127 192.620941,367.410248 
	C200.844681,368.195160 212.450668,361.213135 214.079041,354.366150 
z"/>
<path fill="#EAEAEA" opacity="1.000000" stroke="none" 
	d="
M375.356995,375.933594 
	C371.851318,375.113312 370.751984,376.396729 371.102295,379.752380 
	C381.382294,379.131561 388.098969,371.513580 396.621826,367.635376 
	C389.759796,375.168427 382.036011,381.440521 371.909576,383.880402 
	C368.020294,384.817444 366.415222,382.312653 366.534576,378.683105 
	C366.727783,372.809540 375.936798,363.971832 381.833160,364.181885 
	C383.101013,364.227051 384.920135,365.173889 385.399017,366.208252 
	C385.844055,367.169525 385.267883,369.328644 384.392914,370.040649 
	C381.714325,372.220276 378.675781,373.957550 375.356995,375.933594 
z"/>
<path fill="#ECECEC" opacity="1.000000" stroke="none" 
	d="
M143.958084,371.843811 
	C144.780350,371.469238 145.602615,371.094666 147.002228,370.459167 
	C147.739883,369.775391 147.900238,369.352570 148.060593,368.929718 
	C148.060593,368.929718 148.063889,369.035126 148.458008,368.984375 
	C148.901413,368.262329 148.950684,367.591003 148.999954,366.919708 
	C148.999954,366.919708 149.027863,366.978638 148.996872,366.977814 
	C150.265701,366.689362 151.553436,366.314453 152.867889,366.132538 
	C155.473557,365.771942 158.093948,365.517792 160.708252,365.219635 
	C160.452988,367.532593 160.197708,369.845581 159.656998,372.610077 
	C159.738480,373.275726 160.105408,373.489838 160.472336,373.703949 
	C163.894119,371.767639 167.315887,369.831329 170.737671,367.895020 
	C171.018036,368.231812 171.298401,368.568573 171.578766,368.905365 
	C168.035126,371.423218 164.552460,374.033386 160.927521,376.428162 
	C158.280228,378.177124 155.439926,379.632782 152.696960,381.238464 
	C151.280975,382.067383 149.966736,383.418579 148.466080,383.659698 
	C146.857269,383.918243 144.020737,383.636078 143.605423,382.727783 
	C142.770065,380.900787 143.215149,378.488342 143.134369,375.908081 
	C143.136841,375.498688 143.090302,375.605652 143.445038,375.388611 
	C143.868362,374.418671 143.936966,373.665833 144.005569,372.912964 
	C144.005569,372.912964 144.027679,373.014923 144.422729,373.176270 
	C144.531219,372.839691 144.244659,372.341766 143.958084,371.843811 
M152.619247,376.836334 
	C152.425735,375.408691 152.232224,373.981049 152.038712,372.553436 
	C151.563049,372.544586 151.087387,372.535736 150.611725,372.526917 
	C149.223099,374.894043 147.834457,377.261169 146.445816,379.628296 
	C146.821411,379.942413 147.197006,380.256561 147.572601,380.570709 
	C149.062744,379.506622 150.552872,378.442535 152.619247,376.836334 
z"/>
<path fill="#E8AC51" opacity="1.000000" stroke="none" 
	d="
M240.672440,418.735077 
	C233.719620,418.324005 226.865417,418.324005 220.011230,418.324005 
	C219.978378,417.495575 219.945526,416.667145 219.912689,415.838684 
	C224.684021,415.486816 229.451767,414.903931 234.227432,414.829468 
	C245.435989,414.654633 245.473831,414.764069 242.235352,425.426544 
	C239.582153,434.162018 236.847321,442.872894 234.097458,451.578491 
	C233.744324,452.696503 233.082870,453.717102 232.564240,454.782806 
	C231.898148,454.576477 231.232071,454.370148 230.565994,454.163788 
	C232.116882,448.344971 233.562561,442.495483 235.247971,436.715881 
	C236.966278,430.823517 238.920273,424.999878 240.672440,418.735077 
z"/>
<path fill="#E6AA50" opacity="1.000000" stroke="none" 
	d="
M337.173035,444.895203 
	C336.595734,436.009735 336.057617,427.577301 335.474304,418.436401 
	C332.797729,419.866425 330.767303,420.951202 328.584808,422.117249 
	C328.497894,419.291046 333.066803,413.941101 335.392944,414.589478 
	C336.828308,414.989563 338.339905,417.755066 338.519806,419.586151 
	C339.576508,430.339447 340.266846,441.129242 341.026367,451.910553 
	C341.090088,452.815033 340.753082,453.747742 340.602234,454.667358 
	C340.048492,454.785522 339.494781,454.903656 338.941040,455.021820 
	C338.364746,451.797302 337.788483,448.572754 337.173035,444.895203 
z"/>
<path fill="#E6AA50" opacity="1.000000" stroke="none" 
	d="
M182.166580,429.077881 
	C181.897903,425.367676 181.654633,422.130920 181.366989,418.303986 
	C178.687454,419.855316 176.754135,420.974579 174.683060,422.173645 
	C174.424683,419.345276 178.688232,414.161560 181.314651,414.634399 
	C182.664658,414.877441 184.322998,417.691742 184.498138,419.475983 
	C185.569427,430.390411 186.267319,441.341797 187.044830,452.284058 
	C187.099136,453.048431 186.792465,453.838470 186.640335,454.691254 
	C183.581207,453.068878 183.260223,451.171021 182.166580,429.077881 
z"/>
<path fill="#030303" opacity="1.000000" stroke="none" 
	d="
M232.759399,157.039581 
	C233.603088,163.783966 233.965958,170.495651 234.353409,177.662323 
	C227.640366,177.662323 221.368500,178.101974 215.188797,177.535690 
	C209.293503,176.995453 206.771835,173.283493 206.872864,167.132248 
	C206.970123,161.210342 209.814026,157.730026 215.829071,157.238129 
	C221.282074,156.792206 226.793137,157.056000 232.759399,157.039581 
z"/>
<path fill="#080808" opacity="1.000000" stroke="none" 
	d="
M233.991547,195.079376 
	C233.991547,198.849533 233.991547,202.135925 233.991547,205.783386 
	C228.824173,205.783386 224.035355,206.044067 219.287338,205.715424 
	C213.725159,205.330429 211.073013,202.271133 211.064178,197.043549 
	C211.055405,191.852402 213.689026,188.828949 219.313751,188.408936 
	C223.927170,188.064453 228.586792,188.338745 233.991547,188.338745 
	C233.991547,190.453964 233.991547,192.524780 233.991547,195.079376 
z"/>
<path fill="#272727" opacity="1.000000" stroke="none" 
	d="
M237.278442,370.310883 
	C234.522858,372.695953 231.767288,375.080994 229.011719,377.466034 
	C228.649597,377.044830 228.287491,376.623596 227.925369,376.202393 
	C230.565811,373.946747 233.206238,371.691132 236.352325,369.591339 
	C236.998154,369.935120 237.138290,370.123016 237.278442,370.310883 
z"/>
<path fill="#272727" opacity="1.000000" stroke="none" 
	d="
M236.670471,369.449799 
	C237.304443,368.729218 238.125946,368.306030 238.947449,367.882843 
	C239.235413,368.177429 239.523361,368.472046 239.811325,368.766632 
	C239.150726,369.209778 238.490143,369.652954 237.553986,370.203491 
	C237.138290,370.123016 236.998154,369.935120 236.670471,369.449799 
z"/>
<path fill="#010101" opacity="1.000000" stroke="none" 
	d="
M259.018005,367.931519 
	C259.455200,368.319855 259.411926,368.798950 259.368652,369.278015 
	C258.961700,369.235687 258.554779,369.193359 258.147827,369.151062 
	C258.277740,368.774811 258.407654,368.398560 259.018005,367.931519 
z"/>
<path fill="#202020" opacity="1.000000" stroke="none" 
	d="
M327.766998,360.769012 
	C330.965576,355.869537 334.928589,351.870087 340.349487,349.587250 
	C340.768036,350.033539 341.186584,350.479797 341.605133,350.926086 
	C337.419128,354.495850 333.233154,358.065643 328.579407,361.470276 
	C327.996765,361.126434 327.881866,360.947723 327.766998,360.769012 
z"/>
<path fill="#222222" opacity="1.000000" stroke="none" 
	d="
M294.568726,384.589203 
	C296.366699,384.252502 297.788208,384.037872 299.209747,383.823273 
	C299.337830,384.261200 299.465912,384.699127 299.594025,385.137054 
	C296.220459,386.295074 292.846893,387.453064 289.473328,388.611053 
	C289.245789,388.023041 289.018250,387.434998 288.790680,386.846954 
	C290.591248,386.135071 292.391785,385.423187 294.568726,384.589203 
z"/>
<path fill="#202020" opacity="1.000000" stroke="none" 
	d="
M327.017761,362.037567 
	C326.873383,362.282379 326.729004,362.527191 326.584625,362.772003 
	C326.545654,362.558441 326.506714,362.344910 326.735962,362.069824 
	C327.004150,362.008301 327.017761,362.037567 327.017761,362.037567 
z"/>
<path fill="#202020" opacity="1.000000" stroke="none" 
	d="
M328.242950,361.595551 
	C328.052948,362.071594 327.731720,362.257233 327.214111,362.240234 
	C327.017761,362.037567 327.004150,362.008301 327.001892,362.003967 
	C327.092010,361.667786 327.184387,361.335938 327.521881,360.886536 
	C327.881866,360.947723 327.996765,361.126434 328.242950,361.595551 
z"/>
<path fill="#010101" opacity="1.000000" stroke="none" 
	d="
M358.250000,367.250000 
	C358.533356,367.299988 358.566681,367.600006 358.600006,367.899994 
	C358.399994,367.766663 358.199982,367.633331 358.250000,367.250000 
z"/>
<path fill="#010101" opacity="1.000000" stroke="none" 
	d="
M135.991928,376.638794 
	C135.502274,376.496948 135.298721,376.000031 135.095169,375.503082 
	C135.446106,375.383423 135.797028,375.263763 136.147964,375.144104 
	C136.191315,375.523956 136.234665,375.903809 135.991928,376.638794 
z"/>
<path fill="#010101" opacity="1.000000" stroke="none" 
	d="
M148.626801,367.049072 
	C148.950684,367.591003 148.901413,368.262329 148.407684,369.000061 
	C148.060028,368.437134 148.156830,367.807800 148.626801,367.049072 
z"/>
<path fill="#010101" opacity="1.000000" stroke="none" 
	d="
M143.562531,373.099182 
	C143.936966,373.665833 143.868362,374.418671 143.388641,375.373718 
	C143.024841,374.812408 143.072159,374.048889 143.562531,373.099182 
z"/>
<path fill="#010101" opacity="1.000000" stroke="none" 
	d="
M143.902176,372.143097 
	C144.244659,372.341766 144.531219,372.839691 144.372925,373.191711 
	C143.900787,372.844635 143.873535,372.643524 143.902176,372.143097 
z"/>
<path fill="#010101" opacity="1.000000" stroke="none" 
	d="
M147.514145,368.902161 
	C147.900238,369.352570 147.739883,369.775391 147.278610,370.398865 
	C146.974350,370.024536 146.971024,369.449585 147.514145,368.902161 
z"/>
<path fill="#040301" opacity="1.000000" stroke="none" 
	d="
M311.173340,449.369019 
	C305.124176,452.429535 299.113342,449.553741 297.104889,442.830933 
	C294.903381,435.461945 296.267151,428.295105 299.155945,421.424011 
	C301.077759,416.852783 306.560608,416.202240 310.048798,419.852875 
	C317.608032,427.764374 318.199371,440.164734 311.173340,449.369019 
z"/>
<path fill="#040301" opacity="1.000000" stroke="none" 
	d="
M265.466370,417.946106 
	C271.408081,416.746552 274.024048,420.153656 276.169220,424.385681 
	C279.943115,431.830933 280.627045,439.303955 276.205658,446.707367 
	C273.199860,451.740540 268.640411,452.449371 264.096375,448.741608 
	C263.206207,448.015259 262.400238,447.128204 261.741119,446.185455 
	C257.007019,439.414093 258.855377,423.830536 265.466370,417.946106 
z"/>
<path fill="#1F1F1F" opacity="1.000000" stroke="none" 
	d="
M152.331131,377.107422 
	C150.552872,378.442535 149.062744,379.506622 147.572601,380.570709 
	C147.197006,380.256561 146.821411,379.942413 146.445816,379.628296 
	C147.834457,377.261169 149.223099,374.894043 150.611725,372.526917 
	C151.087387,372.535736 151.563049,372.544586 152.038712,372.553436 
	C152.232224,373.981049 152.425735,375.408691 152.331131,377.107422 
z"/>
<path fill="#010101" opacity="1.000000" stroke="none" 
	d="
M160.335327,373.480286 
	C160.105408,373.489838 159.738480,373.275726 159.612671,372.961304 
	C159.968628,372.992889 160.083481,373.124725 160.335327,373.480286 
z"/>
</svg>